<?xml version="1.0" standalone="no"?>
<!DOCTYPE svg PUBLIC "-//W3C//DTD SVG 20010904//EN"
 "http://www.w3.org/TR/2001/REC-SVG-20010904/DTD/svg10.dtd">
<svg version="1.0" xmlns="http://www.w3.org/2000/svg"
 width="100%" height="100%" viewBox="0 0 1198.000000 1280.000000"
 preserveAspectRatio="xMidYMid meet">
<g transform="translate(0.000000,1280.000000) scale(0.100000,-0.100000)"
fill="#fff" stroke="none">
<path d="M11030 12408 c-14 -18 -29 -42 -35 -54 -13 -29 -115 -121 -148 -133
-44 -17 -140 -22 -197 -11 -95 19 -134 28 -167 38 -44 14 -93 0 -170 -50 -59
-38 -64 -39 -98 -28 -20 7 -42 9 -50 7 -15 -6 -77 -109 -89 -147 -4 -14 -11
-56 -16 -95 -5 -38 -16 -113 -24 -165 -14 -82 -46 -382 -46 -432 0 -27 -31
-22 -92 15 -30 18 -75 38 -99 46 -24 7 -64 19 -89 27 -58 18 -123 18 -202 -2
-75 -18 -93 -26 -178 -80 -95 -60 -174 -147 -196 -217 l-17 -56 38 -58 c48
-73 146 -167 207 -198 50 -26 115 -33 149 -15 10 6 43 15 73 21 29 5 76 21
105 34 28 14 55 25 59 25 25 0 205 112 232 145 6 8 31 25 55 39 32 19 51 41
74 85 35 69 37 91 15 169 -12 40 -15 75 -11 121 14 142 28 258 38 311 5 30 15
80 21 110 17 95 59 155 155 226 l63 46 72 -6 c99 -7 157 -16 164 -27 7 -12
161 -11 169 1 3 6 17 10 30 10 29 0 96 36 182 96 82 59 136 156 118 214 -10
33 -64 26 -95 -12z"/>
<path d="M11037 12079 c-15 -11 -32 -37 -38 -59 -18 -59 -89 -143 -145 -171
-44 -21 -65 -24 -202 -27 -112 -3 -157 0 -168 9 -15 12 -96 30 -148 33 -23 1
-35 -6 -53 -33 -24 -36 -30 -85 -12 -97 6 -3 16 -1 22 5 16 16 123 13 158 -5
23 -12 63 -15 173 -15 l143 0 81 38 c57 27 109 63 177 122 l95 84 0 53 c0 43
-4 56 -22 68 -28 20 -30 20 -61 -5z"/>
<path d="M6859 11276 c-3 -3 -32 -11 -65 -16 -81 -15 -175 -37 -259 -61 -38
-12 -88 -25 -110 -31 -91 -23 -273 -111 -570 -275 -55 -31 -125 -69 -155 -86
-30 -16 -62 -36 -71 -43 -8 -8 -19 -14 -23 -14 -3 0 -41 -23 -83 -51 -42 -27
-88 -56 -103 -64 -97 -50 -462 -399 -497 -476 -11 -24 -31 -71 -43 -104 -13
-33 -44 -100 -70 -150 -26 -49 -53 -110 -60 -135 -7 -25 -23 -72 -35 -105 -70
-183 -71 -185 -86 -360 -21 -247 -22 -244 6 -345 43 -159 43 -145 -5 -255 -54
-123 -49 -232 18 -398 9 -21 33 -51 56 -67 34 -26 49 -30 102 -30 34 0 79 7
100 16 54 22 157 102 185 143 13 18 34 40 47 49 21 14 25 13 55 -9 41 -30 113
-65 155 -74 17 -3 32 -7 32 -8 0 -1 11 -32 24 -69 40 -109 102 -204 190 -292
75 -74 171 -146 196 -146 17 0 170 -79 170 -88 0 -17 -28 -41 -110 -98 -47
-32 -104 -75 -127 -96 -24 -21 -46 -38 -51 -38 -5 0 -26 -18 -48 -40 -21 -22
-49 -40 -61 -40 -13 0 -31 -13 -43 -30 -12 -17 -34 -37 -49 -45 -15 -7 -44
-30 -63 -49 -20 -20 -40 -36 -46 -36 -5 0 -17 -11 -26 -25 -10 -16 -26 -25
-41 -25 -19 0 -25 -5 -25 -21 0 -11 -5 -29 -10 -40 -14 -25 -64 -51 -77 -38
-14 14 -73 -19 -73 -42 0 -11 -7 -19 -17 -19 -10 0 -25 -13 -34 -29 -9 -16
-30 -35 -45 -43 -24 -11 -29 -19 -27 -45 4 -41 -26 -63 -84 -63 -48 0 -57 -15
-18 -30 22 -8 24 -13 15 -30 -20 -38 -87 -100 -108 -100 -19 0 -131 -114 -141
-143 -2 -7 -11 -21 -21 -32 -10 -11 -20 -32 -23 -46 -5 -19 -17 -29 -47 -39
-33 -11 -42 -20 -47 -42 -3 -16 -14 -33 -24 -39 -11 -5 -19 -16 -19 -24 0 -7
-12 -23 -26 -34 -15 -11 -39 -40 -54 -63 -29 -46 -66 -83 -89 -90 -8 -2 -21
-24 -31 -48 -12 -32 -26 -49 -48 -59 -18 -8 -34 -23 -38 -33 -3 -10 -11 -24
-18 -30 -6 -7 -34 -46 -62 -87 -94 -142 -187 -270 -224 -308 -17 -18 -43 -36
-58 -39 -52 -11 -57 -14 -72 -36 -9 -14 -15 -46 -15 -82 l0 -60 -35 -9 c-19
-5 -49 -20 -67 -33 -29 -22 -32 -30 -35 -82 l-3 -57 -50 -2 c-248 -9 -301 -11
-306 -12 -11 -2 -29 -52 -29 -80 0 -16 10 -37 25 -51 14 -13 25 -30 25 -37 0
-35 52 -98 98 -120 33 -16 34 -18 28 -63 -5 -39 -3 -50 14 -65 27 -24 26 -30
-14 -78 -51 -65 -56 -147 -8 -147 10 0 30 -14 45 -31 23 -27 31 -30 59 -24 42
9 87 32 115 57 16 15 29 19 50 14 90 -23 89 -23 157 48 35 36 69 66 74 66 14
0 86 72 107 107 17 29 91 83 114 83 6 0 19 4 29 9 9 5 47 22 83 39 36 17 72
38 79 47 7 8 20 15 29 15 20 0 77 21 111 40 14 7 34 18 45 24 29 16 151 92
220 136 33 22 96 62 140 90 44 28 96 63 116 78 20 15 65 47 100 71 35 24 98
68 139 96 41 29 93 64 115 79 22 15 42 30 45 34 16 23 112 83 127 80 16 -3 18
-14 15 -83 -2 -44 -7 -100 -12 -125 -5 -25 -12 -135 -15 -245 -8 -274 -23
-589 -35 -780 -6 -88 -13 -187 -15 -220 -2 -33 -9 -91 -15 -130 -7 -38 -14
-99 -17 -135 -2 -36 -9 -69 -14 -74 -13 -14 -11 -180 2 -193 14 -14 13 -356
-1 -382 -5 -11 -10 -33 -10 -48 0 -16 -5 -34 -11 -40 -7 -7 -4 -28 10 -69 17
-53 19 -87 20 -336 0 -163 4 -293 11 -317 5 -21 8 -46 4 -54 -3 -8 6 -32 19
-54 14 -21 30 -54 36 -74 7 -20 21 -45 31 -54 11 -10 20 -27 20 -37 0 -11 14
-33 31 -50 39 -40 52 -73 39 -99 -14 -26 -55 -34 -83 -17 -14 8 -50 13 -102
12 -96 -1 -139 -18 -207 -84 -42 -41 -48 -51 -48 -88 0 -28 -7 -49 -22 -66
-21 -22 -33 -26 -113 -30 -170 -10 -340 -24 -405 -35 -36 -6 -140 -12 -230
-15 -145 -4 -175 -8 -245 -31 -86 -29 -129 -46 -185 -75 -19 -10 -51 -21 -70
-25 -19 -4 -54 -21 -77 -36 -23 -16 -44 -29 -48 -29 -11 0 -200 -111 -220
-130 -11 -10 -40 -26 -65 -36 -25 -9 -74 -36 -110 -59 -116 -75 -156 -95 -191
-95 -21 0 -41 -7 -50 -18 -23 -27 -190 -36 -285 -16 -38 7 -87 14 -109 14 -23
0 -46 5 -52 11 -15 15 -76 7 -138 -19 -59 -24 -184 -42 -350 -49 -128 -6 -160
-16 -171 -56 -3 -12 -29 -40 -57 -62 -74 -56 -257 -246 -257 -266 0 -9 -16
-29 -35 -43 -41 -31 -44 -49 -13 -70 27 -19 81 -12 118 16 59 45 127 85 155
92 17 4 71 31 120 60 50 29 124 70 165 91 41 20 86 45 100 55 73 50 108 18 43
-39 -22 -20 -50 -53 -62 -73 -12 -21 -39 -51 -59 -68 -40 -32 -122 -138 -122
-156 0 -17 23 -33 57 -40 28 -6 72 11 163 61 14 8 56 30 93 49 37 20 106 61
152 91 47 30 91 55 99 55 7 0 19 7 26 15 7 8 18 15 24 15 7 0 30 9 52 19 33
17 39 17 42 4 2 -8 -2 -27 -8 -43 -14 -33 -2 -63 30 -80 36 -19 122 5 231 65
56 30 107 55 113 55 6 0 20 7 30 15 11 8 30 15 43 15 20 0 23 -5 23 -35 0 -30
-12 -50 -81 -128 -84 -96 -114 -141 -104 -157 12 -20 33 -9 68 34 110 134 207
202 207 146 0 -12 7 -20 18 -20 25 0 83 22 112 43 14 10 57 40 95 68 39 28 80
55 91 59 12 5 53 28 90 52 38 24 86 52 106 61 21 10 42 27 48 37 14 26 57 26
90 0 l25 -19 -22 -23 c-13 -13 -38 -29 -57 -36 -43 -16 -121 -86 -112 -101 4
-6 25 -11 46 -11 32 0 47 8 93 50 30 27 63 50 73 50 11 1 35 14 54 30 40 35
70 38 77 10 3 -11 13 -20 23 -20 12 0 20 -9 22 -23 4 -27 48 -36 68 -13 7 9
25 16 41 16 15 0 31 5 34 10 3 6 17 10 31 10 14 0 27 7 31 18 11 30 35 52 60
52 18 0 23 -5 23 -26 0 -14 5 -34 10 -45 12 -22 55 -26 67 -6 4 7 19 20 33 30
14 9 35 24 47 33 20 15 22 14 37 -18 8 -18 16 -44 18 -58 2 -18 10 -26 28 -28
32 -4 90 -30 90 -41 0 -4 -13 -20 -30 -34 -32 -29 -39 -57 -15 -57 19 0 48 18
134 82 59 44 68 48 122 48 32 0 61 -4 64 -10 3 -5 27 -10 53 -10 39 0 49 -4
57 -22 10 -23 13 -23 156 -20 122 2 148 0 159 -13 7 -8 18 -15 25 -15 7 0 18
-6 24 -14 22 -27 68 -29 107 -7 53 31 89 28 108 -11 9 -17 16 -35 16 -40 0 -5
12 -21 26 -35 22 -22 29 -24 45 -15 10 7 44 12 74 12 44 0 57 4 62 18 13 37
36 52 78 52 26 0 48 -6 55 -15 8 -10 31 -15 69 -15 43 0 62 -5 79 -20 12 -11
31 -20 43 -20 11 0 36 -7 55 -16 32 -15 36 -15 53 0 25 23 54 20 81 -9 21 -22
32 -25 97 -25 40 0 81 -4 91 -9 92 -47 112 -54 127 -41 39 32 -9 120 -66 120
-15 0 -31 5 -34 10 -3 6 -21 10 -40 10 -18 0 -40 7 -49 15 -8 8 -25 15 -39 15
-36 0 -57 30 -57 82 0 31 6 50 18 61 23 21 56 22 72 2 16 -19 34 -19 50 1 20
23 64 14 68 -13 4 -29 10 -29 34 2 11 14 27 25 37 25 10 0 26 9 36 20 27 30
82 27 117 -7 15 -15 28 -33 28 -41 0 -32 27 -42 115 -42 75 0 91 -3 123 -25
44 -30 98 -33 145 -6 18 10 52 22 75 26 23 4 42 12 42 19 0 7 8 20 18 29 22
20 72 23 72 4 0 -34 78 -64 95 -37 3 5 19 10 36 10 22 0 29 -5 29 -20 0 -15 7
-20 24 -20 14 0 28 5 31 10 10 16 55 12 61 -5 4 -8 -1 -26 -10 -40 -30 -45
-22 -60 43 -80 55 -16 61 -16 91 -1 18 9 37 16 41 16 5 0 50 20 101 44 109 51
151 61 168 41 7 -9 29 -15 51 -15 32 0 39 -3 39 -20 0 -25 12 -25 35 0 19 21
89 28 100 10 3 -5 13 -10 21 -10 20 0 39 -20 48 -48 10 -30 61 -31 69 -2 4 14
14 20 35 20 17 0 34 -5 37 -10 11 -18 30 -11 67 23 39 35 108 64 127 53 6 -4
11 -22 11 -40 0 -17 4 -36 9 -42 5 -5 11 -27 13 -49 l3 -40 50 -3 c28 -2 59
-11 70 -20 31 -27 81 -52 102 -52 10 0 24 -5 30 -11 8 -8 13 -8 17 0 4 6 25
11 47 11 26 0 42 5 45 15 8 19 51 19 70 0 10 -9 34 -15 63 -15 35 0 50 -5 61
-20 12 -17 26 -20 92 -20 l78 0 0 -28 c0 -36 28 -62 67 -62 18 0 41 -10 57
-25 24 -23 35 -25 112 -25 l84 0 0 32 c0 35 -42 88 -70 88 -9 0 -25 9 -35 19
-9 11 -33 21 -54 23 -35 3 -36 4 -39 46 -3 41 -2 42 27 42 16 0 32 4 35 8 4 7
73 38 161 72 26 10 130 58 176 82 48 24 95 24 109 -1 17 -33 74 -45 139 -31
53 12 184 70 206 91 5 5 24 9 41 9 18 0 36 5 39 10 8 13 82 13 90 0 8 -13 52
-13 60 0 3 6 22 10 41 10 31 0 34 -3 34 -29 0 -30 -33 -80 -53 -82 -22 -1 -98
-100 -95 -123 5 -38 40 -30 102 24 31 27 60 50 64 50 4 0 33 25 65 55 33 30
65 55 72 55 7 0 32 25 56 56 24 30 59 73 77 94 36 42 52 85 52 139 0 27 9 43
45 79 48 48 54 62 30 82 -19 16 -95 2 -190 -36 -43 -17 -101 -30 -150 -34 -44
-4 -123 -12 -175 -18 -183 -21 -416 -35 -495 -29 -214 14 -363 28 -389 37 -16
6 -46 10 -68 10 -24 0 -50 8 -69 22 -26 19 -33 21 -62 10 -19 -7 -83 -12 -144
-12 -89 0 -113 -3 -124 -16 -9 -12 -10 -20 -2 -33 15 -24 -1 -48 -36 -56 -16
-3 -35 -13 -42 -21 -6 -8 -18 -14 -25 -14 -14 0 -17 10 -15 46 2 14 -13 34
-40 58 -34 28 -51 36 -83 36 -40 1 -88 21 -226 97 -30 16 -114 60 -186 97 -96
49 -143 80 -177 115 -45 47 -59 83 -37 96 17 10 11 25 -10 25 -15 0 -20 7 -20
29 0 23 -7 33 -32 45 -17 9 -39 16 -50 16 -10 0 -27 6 -38 12 -16 10 -24 10
-40 0 -11 -6 -33 -12 -50 -12 -17 0 -39 -6 -50 -12 -17 -11 -24 -8 -58 25
l-38 37 -117 0 c-104 0 -131 4 -235 34 -134 39 -284 61 -352 52 -81 -11 -101
10 -55 60 25 27 32 70 17 105 -15 35 -119 141 -156 160 -41 19 -145 49 -175
49 -9 0 -25 6 -36 13 -17 13 -17 15 6 38 89 88 108 142 67 194 -19 25 -20 30
-8 64 10 26 13 93 11 245 -1 116 -5 215 -9 220 -10 16 -21 108 -27 226 -3 58
-9 130 -15 160 -5 30 -16 100 -25 155 -8 55 -22 136 -30 180 -8 44 -15 123
-15 175 -1 52 -5 129 -10 170 -33 257 -44 400 -34 432 3 12 15 18 34 18 68 0
120 48 120 112 0 20 -32 57 -65 75 -18 11 -16 14 28 55 59 55 63 92 16 132
-17 14 -37 26 -44 26 -19 0 -23 19 -30 160 -3 69 -11 163 -17 210 -5 47 -14
148 -19 225 -4 77 -11 172 -14 211 -3 39 -9 145 -14 235 -8 185 -3 206 43 175
14 -9 26 -26 26 -37 0 -11 11 -35 25 -53 14 -18 25 -44 25 -59 0 -32 34 -113
51 -119 6 -2 19 -23 28 -47 21 -52 71 -116 128 -161 24 -19 43 -40 43 -45 0
-6 29 -40 65 -75 36 -35 65 -72 65 -81 0 -10 11 -26 25 -37 14 -11 25 -26 25
-33 0 -20 155 -179 173 -179 9 0 22 -8 29 -18 7 -10 25 -22 39 -25 15 -4 55
-23 89 -42 34 -19 70 -35 80 -35 10 0 22 -9 25 -20 7 -22 20 -26 30 -10 8 14
52 13 61 -1 4 -8 28 -10 71 -6 35 4 74 2 88 -3 13 -5 43 -35 66 -67 88 -120
297 -303 347 -303 11 0 27 11 36 25 13 20 25 25 56 25 22 0 48 -4 58 -9 38
-20 143 -49 161 -44 21 5 81 92 81 117 0 10 17 24 44 35 49 22 66 53 58 114
-4 34 -2 37 20 37 47 0 94 77 83 136 -12 69 -192 200 -320 234 -44 12 -90 28
-103 36 -20 13 -72 111 -72 135 0 13 -143 212 -204 285 -55 66 -109 138 -141
189 -11 17 -32 47 -46 66 -15 19 -48 78 -75 129 -26 52 -61 115 -78 140 -17
25 -35 53 -41 62 -77 135 -212 325 -329 463 -89 105 -288 329 -330 371 -23 23
-56 61 -74 85 -18 24 -48 64 -67 89 -19 25 -35 50 -35 56 0 6 -9 19 -19 28
-36 33 -91 159 -91 208 0 30 -7 54 -20 71 -11 14 -20 31 -20 39 0 7 25 38 56
68 78 75 116 125 151 195 31 60 66 168 79 238 3 20 10 40 15 43 5 3 9 14 9 24
0 10 11 31 23 46 30 34 57 27 57 -14 0 -63 41 -125 124 -187 35 -26 47 -30
105 -30 61 1 77 6 205 70 153 75 182 97 255 188 57 73 75 107 107 200 58 172
38 237 -115 360 -13 10 -20 24 -17 32 3 8 8 59 12 114 8 119 13 129 49 113 14
-7 39 -12 55 -12 27 0 30 3 30 34 0 32 -25 89 -56 126 -19 23 -54 136 -54 175
0 19 -7 61 -15 93 -8 31 -24 109 -35 172 -11 63 -25 129 -30 145 -4 17 -12 46
-16 65 -13 68 -99 264 -157 362 -79 131 -113 181 -139 201 -16 12 -43 37 -61
56 -43 44 -202 171 -215 171 -6 0 -17 8 -24 18 -32 42 -141 122 -168 122 -15
0 -38 8 -51 18 -26 19 -80 43 -144 63 -22 7 -44 17 -49 21 -6 4 -19 8 -31 8
-12 0 -27 6 -33 13 -13 12 -321 25 -333 13z m458 -203 c28 -16 92 -55 142 -88
70 -46 91 -65 89 -80 -3 -16 -9 -19 -38 -17 -19 2 -44 11 -55 20 -28 24 -81
52 -97 52 -8 0 -33 9 -56 20 -22 11 -50 20 -60 20 -10 0 -27 9 -37 19 -16 19
-16 21 5 50 26 38 43 39 107 4z m-361 -122 c83 -31 118 -43 144 -48 66 -13
424 -191 490 -242 195 -154 411 -406 488 -570 38 -82 43 -98 74 -247 21 -97
21 -103 5 -170 -21 -85 -21 -121 -2 -167 18 -44 20 -193 3 -267 -11 -48 -15
-54 -55 -71 -24 -10 -58 -29 -76 -43 -18 -13 -49 -29 -70 -36 -21 -7 -53 -25
-71 -40 -31 -28 -37 -29 -142 -31 l-109 -2 -6 58 c-10 88 -63 247 -98 290 -9
11 -25 36 -35 55 -45 84 -135 189 -163 190 -16 0 -56 77 -47 91 3 6 42 8 101
5 76 -3 95 -2 100 10 3 8 18 21 34 30 20 10 29 22 29 39 0 35 -38 113 -58 119
-10 3 -62 10 -117 16 -131 14 -165 20 -165 32 0 5 37 26 83 48 86 40 127 79
127 123 0 14 -7 30 -16 38 -20 16 -76 2 -165 -41 -35 -16 -68 -30 -75 -30 -24
0 -24 19 1 48 29 35 30 44 11 136 -10 45 -23 77 -40 95 -20 21 -26 41 -31 101
-11 118 -64 155 -126 88 -35 -39 -46 -70 -58 -165 -8 -61 -15 -79 -46 -117
-41 -50 -117 -116 -135 -116 -21 0 -4 154 22 200 l23 41 -25 19 c-14 11 -39
34 -57 52 -30 30 -33 31 -71 20 -22 -7 -53 -12 -69 -12 -34 0 -49 -11 -87 -63
-15 -21 -33 -36 -39 -34 -6 2 -19 24 -28 49 -9 25 -31 64 -49 87 -40 49 -74
54 -109 17 -23 -25 -24 -44 -6 -103 6 -18 3 -23 -11 -23 -11 0 -25 9 -32 21
-18 28 -69 22 -94 -12 -17 -22 -18 -30 -6 -72 6 -25 9 -49 6 -52 -3 -3 -36 15
-73 40 -38 25 -78 48 -91 51 -32 8 -61 -11 -94 -62 -25 -40 -27 -49 -18 -77 6
-18 15 -36 19 -41 5 -6 9 -16 9 -24 0 -7 11 -30 25 -50 14 -20 25 -40 25 -43
0 -4 -50 -9 -111 -11 -107 -3 -111 -4 -131 -30 -16 -22 -28 -28 -59 -28 -36 0
-46 -7 -107 -69 -62 -63 -122 -146 -122 -168 0 -5 11 -20 25 -33 44 -41 23
-65 -37 -41 -13 5 -56 15 -95 22 -67 11 -75 11 -93 -6 -27 -24 -25 -66 3 -93
12 -12 47 -29 76 -39 29 -9 55 -23 58 -31 3 -7 -2 -29 -11 -48 -21 -45 -20
-69 4 -102 17 -23 18 -32 8 -64 -14 -47 6 -82 53 -92 35 -7 35 8 10 -161 -6
-38 -16 -110 -21 -160 -24 -205 -31 -224 -55 -155 -16 44 -68 124 -114 173
-45 49 -182 117 -233 117 -65 0 -74 18 -81 166 -7 167 2 199 129 469 15 33 46
87 69 120 52 78 93 146 126 215 27 56 61 103 136 188 23 26 57 70 75 99 18 29
35 52 38 53 3 0 54 47 112 104 59 57 131 118 161 135 30 17 60 37 66 45 6 8
26 20 44 27 18 7 51 25 74 41 60 41 341 148 387 148 7 0 34 9 59 20 60 26 142
40 316 50 79 5 146 11 149 14 12 13 92 5 138 -13z m-1836 -806 c0 -12 -33 -55
-41 -55 -5 0 -9 14 -9 30 0 25 4 30 25 30 14 0 25 -2 25 -5z m1236 -7300 c20
-115 95 -308 140 -357 41 -47 70 -67 95 -68 16 0 119 -101 119 -117 0 -4 20
-30 45 -56 25 -27 45 -52 45 -56 0 -5 -9 -19 -19 -32 -27 -35 -51 -97 -51
-133 0 -46 49 -100 126 -136 35 -17 64 -36 63 -43 -1 -28 -275 -243 -377 -297
-21 -10 -62 -39 -92 -65 l-55 -46 -75 6 c-210 15 -303 33 -396 75 -37 16 -72
30 -79 30 -7 0 -29 12 -50 26 -22 14 -59 28 -86 31 -44 5 -49 8 -49 30 0 17
-7 27 -21 30 -16 4 -19 12 -17 36 2 16 10 33 18 37 118 55 150 74 175 100 27
28 30 38 28 85 -2 49 1 57 35 99 41 49 192 322 192 347 0 8 7 24 15 36 28 40
84 158 105 222 12 35 32 85 44 110 13 25 33 77 46 114 19 58 25 68 43 65 17
-2 23 -14 33 -73z"/>
<path d="M4703 10858 c-79 -83 -105 -108 -195 -183 -53 -45 -109 -87 -125 -95
-15 -8 -44 -26 -63 -41 -48 -36 -188 -97 -246 -108 -54 -9 -142 -1 -189 18
-74 30 -137 106 -105 126 25 15 4 92 -32 114 -30 19 -110 5 -155 -28 -49 -36
-145 -181 -161 -245 -7 -27 -22 -61 -32 -77 -11 -15 -27 -51 -36 -81 -9 -29
-20 -62 -25 -73 -5 -11 -15 -45 -23 -76 -8 -31 -22 -71 -30 -88 -50 -96 -251
-270 -349 -303 -51 -17 -87 -16 -87 2 0 5 21 64 46 132 38 103 91 262 134 403
22 76 42 241 38 324 -3 75 -9 99 -37 155 -35 72 -60 88 -104 64 -28 -15 -107
-104 -107 -120 0 -6 -15 -31 -34 -57 -81 -109 -134 -279 -141 -446 -3 -60 -7
-121 -10 -135 -10 -51 13 -225 40 -305 l27 -81 -32 -69 c-18 -39 -43 -93 -56
-121 -30 -63 -30 -79 -2 -98 20 -14 24 -14 43 4 24 23 80 130 90 172 8 32 21
37 96 37 45 0 72 7 140 40 85 40 153 97 272 230 44 48 52 53 79 47 78 -15 155
37 238 159 56 84 130 233 130 264 0 34 26 36 93 6 81 -35 227 -46 299 -22 164
56 275 138 536 396 111 109 143 147 140 164 -5 33 -31 31 -65 -5z m-1745 -338
c7 -105 -40 -368 -74 -410 -6 -8 -17 -31 -23 -50 -6 -19 -17 -55 -25 -80 -18
-59 -48 -120 -57 -120 -14 0 -18 34 -20 150 -2 224 43 426 120 535 60 85 71
82 79 -25z m680 -52 c-16 -52 -53 -96 -69 -81 -15 15 2 61 39 105 31 36 45 25
30 -24z"/>
<path d="M10584 10552 c-12 -9 -24 -25 -27 -35 -4 -10 -20 -25 -37 -35 -18
-10 -45 -42 -65 -77 -27 -49 -36 -79 -45 -155 -6 -52 -15 -126 -20 -165 -5
-38 -12 -133 -16 -210 -5 -100 -12 -152 -25 -182 -20 -47 -26 -50 -55 -28 -10
8 -26 15 -35 15 -9 0 -23 7 -30 16 -34 41 -159 70 -187 42 -6 -6 -30 -14 -54
-18 -56 -10 -188 -59 -283 -106 -80 -39 -240 -171 -251 -207 -4 -11 5 -42 21
-76 15 -31 41 -84 58 -119 54 -111 105 -139 235 -129 143 12 203 33 347 120
62 37 166 122 210 169 81 88 103 112 129 136 35 33 51 101 36 147 -7 20 -9 55
-6 78 3 23 10 85 16 137 5 52 12 106 15 120 6 27 22 145 34 254 7 59 13 73 40
98 18 17 31 39 31 53 0 32 29 39 105 25 33 -6 80 -15 105 -19 64 -12 80 -19
122 -59 27 -25 48 -36 80 -39 40 -5 47 -2 66 22 54 68 -5 155 -103 155 -20 0
-55 9 -77 20 -23 11 -61 20 -85 20 -43 0 -129 21 -165 41 -27 14 -61 10 -84
-9z"/>
<path d="M755 8433 c-46 -16 -80 -46 -141 -125 -50 -67 -114 -188 -114 -218 0
-12 -6 -33 -14 -48 -8 -15 -22 -83 -31 -152 -39 -282 -6 -614 71 -717 29 -39
29 -44 2 -110 -18 -44 -19 -57 -10 -78 16 -36 37 -40 83 -19 34 15 46 16 73 6
111 -40 333 24 428 124 20 22 59 55 88 74 66 45 156 136 172 175 6 17 27 52
45 79 18 26 33 59 33 72 0 28 46 128 67 146 13 10 19 8 39 -17 13 -17 24 -37
24 -45 0 -8 25 -34 55 -57 53 -41 58 -43 125 -43 61 0 81 5 153 40 46 22 121
69 168 104 106 82 119 95 119 118 0 29 -37 22 -89 -16 -54 -40 -166 -97 -234
-120 -39 -13 -57 -14 -89 -5 -61 16 -81 44 -117 159 -19 58 -39 115 -47 126
-11 19 -10 26 12 55 45 61 25 137 -46 174 -65 34 -127 10 -217 -85 -35 -35
-63 -72 -63 -81 0 -9 -7 -22 -15 -29 -8 -7 -15 -16 -15 -21 0 -5 -12 -34 -26
-65 -44 -96 -83 -235 -83 -294 -1 -66 49 -103 119 -90 60 12 60 12 60 -3 0
-24 -28 -71 -60 -102 -16 -16 -30 -34 -30 -40 0 -6 -24 -34 -53 -62 -125 -124
-359 -198 -452 -144 -39 23 -42 48 -12 102 25 48 39 90 58 184 6 33 22 92 34
130 12 39 27 90 34 115 7 25 17 60 23 78 5 18 14 59 19 90 5 31 14 77 20 102
6 25 13 100 16 167 4 113 3 126 -20 180 -14 32 -31 79 -37 105 -12 45 -38 79
-70 90 -8 3 -33 -1 -55 -9z m44 -161 c5 -10 17 -49 26 -87 16 -65 16 -80 1
-205 -19 -156 -37 -240 -101 -455 -13 -44 -29 -98 -36 -120 -18 -62 -51 -116
-69 -113 -24 5 -47 92 -58 223 -11 124 -11 145 6 280 21 173 52 305 77 325 8
7 15 20 15 29 0 21 24 54 74 103 45 43 51 45 65 20z m674 -364 c-8 -41 -36
-132 -56 -178 -35 -81 -107 -152 -107 -105 0 18 41 128 64 170 9 17 16 36 16
43 0 27 56 102 76 102 10 0 12 -9 7 -32z"/>
<path d="M80 3721 c0 -17 115 -88 173 -107 29 -9 58 -19 64 -21 14 -5 53 75
53 108 0 17 -7 18 -77 16 -43 -1 -108 2 -145 6 -48 6 -68 5 -68 -2z"/>
<path d="M4740 873 c-32 -12 -41 -53 -12 -53 23 0 42 19 42 42 0 19 -5 20 -30
11z"/>
</g>
</svg>
