<?xml version="1.0" standalone="no"?>
<!DOCTYPE svg PUBLIC "-//W3C//DTD SVG 20010904//EN"
 "http://www.w3.org/TR/2001/REC-SVG-20010904/DTD/svg10.dtd">
<svg version="1.0" xmlns="http://www.w3.org/2000/svg"
 width="100px" height="100px" viewBox="0 0 1130.000000 1280.000000"
 preserveAspectRatio="xMidYMid meet">
<g transform="translate(0.000000,1280.000000) scale(0.100000,-0.100000)"
fill="#fff" stroke="none">
<path d="M9215 12788 c-181 -3 -564 -11 -850 -17 -286 -6 -734 -16 -995 -21
-591 -12 -1208 -26 -1895 -42 -611 -14 -1735 -17 -1783 -5 -26 7 -32 6 -32 -7
0 -14 -29 -16 -247 -16 -222 0 -404 -8 -591 -26 l-62 -6 0 31 c0 38 36 37
-465 11 -209 -12 -463 -19 -565 -18 l-185 3 -11 -35 c-10 -29 -17 -36 -43 -38
-25 -3 -31 0 -31 16 0 11 -9 30 -19 43 l-19 24 -570 0 c-558 0 -571 0 -599
-20 -40 -30 -93 -141 -106 -224 l-11 -71 -43 0 c-24 0 -43 -3 -43 -7 0 -5 -11
-108 -25 -231 l-25 -223 25 -43 c23 -39 25 -53 25 -162 -1 -80 -5 -127 -14
-143 -12 -22 -10 -31 16 -87 l29 -63 -10 -388 c-6 -213 -13 -509 -16 -658 -3
-148 -8 -303 -11 -342 -5 -69 -4 -73 16 -73 24 0 24 1 3 -132 l-17 -106 32
-36 c43 -49 44 -99 2 -151 -37 -47 -37 -70 -1 -117 l28 -38 -25 -103 -25 -103
26 -39 c25 -39 26 -48 38 -285 9 -196 9 -287 -1 -453 -9 -141 -11 -309 -7
-525 6 -283 9 -324 27 -382 30 -92 34 -208 16 -413 -18 -195 -21 -601 -7 -878
7 -137 12 -172 30 -206 l20 -41 -29 -37 c-39 -50 -41 -110 -5 -153 23 -28 25
-38 25 -134 0 -99 -1 -106 -25 -128 -35 -33 -35 -91 0 -114 31 -20 32 -49 10
-341 -8 -110 -15 -206 -15 -212 0 -8 12 -13 29 -13 28 0 28 -1 34 -67 4 -38 7
-107 7 -154 0 -259 57 -549 138 -706 21 -41 32 -78 36 -126 10 -128 62 -274
211 -602 90 -200 141 -345 151 -434 7 -63 8 -66 72 -125 110 -103 217 -251
456 -633 117 -188 161 -242 529 -665 l249 -286 50 -6 c79 -11 109 -28 202
-114 65 -60 108 -90 174 -122 48 -23 152 -75 232 -115 80 -40 215 -101 300
-135 85 -34 220 -90 300 -125 283 -122 563 -206 825 -245 284 -42 342 -53 420
-77 44 -14 101 -36 127 -49 46 -23 49 -24 111 -9 54 12 182 15 763 15 385 1
760 6 834 11 486 36 1031 147 1500 307 264 90 441 171 665 304 88 52 234 137
325 188 193 108 251 148 380 261 52 45 138 114 190 152 195 144 421 358 535
507 66 85 135 220 135 262 0 26 -3 28 -42 29 l-43 1 40 9 c160 37 184 58 262
220 27 57 84 154 125 214 105 156 156 253 280 539 220 507 294 707 324 881 9
50 21 93 27 97 5 3 39 203 73 445 l64 438 -11 130 c-10 119 -9 149 16 355 40
335 40 364 14 665 -21 238 -24 327 -24 755 l0 485 27 48 27 47 -27 48 c-24 42
-27 57 -27 142 0 79 5 110 30 183 l29 87 -42 223 c-23 122 -42 225 -42 230 0
4 7 7 15 7 12 0 14 11 9 58 -2 31 -18 277 -34 546 -33 541 -38 797 -15 861 12
35 12 45 -1 85 -51 147 -69 439 -59 990 4 239 9 647 11 905 3 399 6 478 20
522 l17 52 -66 98 c-86 130 -205 288 -256 340 l-40 41 -638 -1 c-351 -1 -786
-5 -968 -9z m1455 -232 c50 -15 72 -46 74 -105 1 -32 -3 -37 -34 -47 -40 -13
-184 -29 -405 -45 -82 -6 -561 -13 -1062 -16 -734 -4 -913 -8 -913 -18 0 -19
-130 -23 -1110 -35 -964 -12 -1830 -24 -2905 -41 -396 -7 -945 -10 -1220 -9
-861 5 -873 5 -1270 -24 -370 -27 -389 -28 -730 -17 -192 6 -382 11 -421 11
l-71 0 -77 61 c-42 33 -76 63 -76 65 0 3 9 22 19 43 l20 38 92 6 c51 4 216 7
368 7 152 0 546 4 876 10 330 5 902 14 1270 20 369 5 960 15 1315 20 355 6
931 14 1280 20 1108 17 2043 32 3170 50 1428 22 1752 24 1810 6z m-108 -326
c129 -19 216 -61 252 -121 17 -29 19 -57 19 -343 0 -171 -3 -459 -7 -641 -8
-341 -2 -498 54 -1542 l19 -362 -23 -43 -23 -43 28 -645 c15 -355 37 -821 48
-1036 25 -461 26 -608 6 -844 -8 -96 -15 -235 -15 -308 0 -133 0 -134 -40
-229 -22 -53 -40 -106 -40 -118 0 -12 11 -37 25 -56 56 -77 55 -67 55 -496 l0
-397 -26 -38 c-24 -34 -26 -43 -19 -95 4 -32 8 -98 9 -148 1 -83 -2 -96 -34
-165 -28 -61 -35 -90 -38 -156 -3 -57 0 -90 10 -108 13 -25 12 -33 -15 -88
-87 -184 -287 -809 -287 -899 0 -18 -122 -204 -636 -968 -90 -135 -164 -248
-164 -253 0 -4 11 -8 25 -8 21 0 25 -5 25 -30 0 -21 -6 -32 -17 -36 -10 -3
-51 -21 -91 -41 -79 -39 -160 -113 -339 -309 -91 -100 -138 -134 -186 -134
-14 0 -58 16 -99 35 -86 41 -203 60 -318 51 -73 -5 -217 3 -390 23 -47 6 -195
15 -330 21 -135 6 -277 13 -315 16 l-71 5 -28 50 c-15 28 -34 53 -41 55 -11 5
-51 -3 -117 -22 -14 -4 -17 3 -20 38 l-3 43 -135 7 c-234 13 -394 27 -435 40
-26 8 -59 33 -95 70 -53 54 -142 108 -182 108 -15 0 -18 10 -18 63 0 35 -9 97
-20 138 -52 191 -62 259 -70 499 -9 263 -20 319 -76 375 l-32 32 -7 214 c-5
167 -2 285 14 535 24 381 30 405 107 450 30 18 68 28 135 35 87 10 95 13 137
50 44 38 47 39 120 39 73 0 75 1 126 42 233 193 256 218 291 326 9 30 31 69
48 88 l30 35 24 -22 c15 -15 34 -59 53 -120 35 -112 64 -153 130 -183 39 -18
72 -21 245 -26 185 -5 203 -7 245 -29 34 -18 62 -24 117 -25 66 -1 74 1 102
28 35 34 49 86 32 123 -6 14 -27 45 -46 68 -33 40 -35 46 -35 121 l0 79 -65
108 c-36 60 -65 112 -65 117 0 18 20 20 56 5 85 -35 157 -9 217 79 31 45 43
55 60 51 12 -2 67 -9 122 -15 55 -6 110 -13 122 -15 15 -4 37 8 75 38 53 44
53 44 156 51 187 12 316 48 389 110 20 17 40 49 54 86 l21 59 122 -82 121 -82
125 -16 125 -16 65 69 65 69 64 -16 c77 -20 94 -15 143 47 68 85 75 104 82
228 16 272 86 395 259 454 10 3 29 25 43 48 98 164 154 264 154 276 0 42 -94
168 -172 230 -37 29 -47 32 -109 32 -59 0 -72 -3 -100 -27 -26 -22 -43 -28
-82 -28 -44 0 -52 4 -78 35 -35 42 -35 54 -4 153 47 147 22 243 -78 301 -41
25 -51 26 -181 26 -113 0 -137 2 -133 14 3 8 -25 41 -73 85 l-79 71 -163 -2
c-145 -3 -167 -1 -192 15 -29 19 -61 81 -51 97 4 6 49 10 101 10 52 0 94 2 94
5 0 24 -53 97 -121 169 -79 83 -81 88 -72 119 6 23 25 43 68 72 34 23 68 56
78 75 19 36 19 55 -2 251 l-6 56 -80 64 c-120 95 -230 166 -288 185 -46 15
-64 16 -172 5 -66 -7 -132 -15 -146 -18 -26 -5 -26 -4 -31 62 -4 50 -11 72
-28 90 -12 13 -24 40 -27 62 -5 37 -4 39 41 60 60 29 121 85 154 142 22 38 27
58 26 111 0 87 -33 154 -123 251 l-70 75 -11 90 c-12 114 -29 170 -92 307 -50
109 -51 112 -39 156 7 25 15 75 18 111 l5 65 -91 89 -91 89 -175 -18 c-208
-21 -204 -22 -231 85 l-18 68 -60 12 c-92 17 -154 50 -234 123 -67 62 -75 67
-118 67 -52 0 -65 -6 -148 -67 -70 -52 -116 -73 -158 -73 -37 0 -148 48 -148
64 0 6 7 43 15 81 23 110 19 202 -10 250 -14 22 -25 51 -25 64 0 21 3 23 33
17 17 -3 157 -9 310 -13 l277 -6 0 25 c0 20 -12 30 -69 57 l-68 34 -204 1
c-222 1 -253 7 -311 63 -56 54 -65 53 428 55 l456 3 31 42 30 42 -24 20 c-57
47 -51 47 -347 13 -307 -36 -391 -39 -471 -17 -54 14 -55 14 -111 -16 l-56
-30 -69 29 -70 29 -3 101 -3 102 31 0 c17 0 126 -7 243 -16 177 -13 257 -13
482 -4 251 10 289 9 538 -13 147 -12 267 -19 267 -15 0 4 -14 37 -32 73 l-32
65 -766 0 c-922 0 -1115 11 -1229 68 -52 26 -85 58 -153 151 -60 80 -74 86
-206 86 -64 0 -169 -4 -232 -9 -111 -8 -116 -8 -134 13 -30 34 -12 70 49 101
l50 25 750 -3 c413 -2 894 1 1070 7 176 6 579 16 895 21 1029 19 1382 29 1550
44 239 22 240 22 420 24 91 1 195 -3 232 -8z m-5547 -105 c33 -17 41 -26 43
-54 5 -49 -4 -76 -41 -118 -81 -92 -302 -183 -445 -183 -43 0 -55 -7 -201
-117 -84 -65 -159 -121 -164 -125 -7 -4 -6 -12 3 -23 20 -24 -55 -376 -82
-383 -12 -3 -17 -11 -14 -21 20 -65 86 -309 86 -314 0 -4 -33 -7 -74 -7 -96 0
-118 -16 -146 -109 -11 -38 -26 -73 -33 -79 -7 -5 -107 -12 -232 -15 -276 -6
-355 -25 -450 -109 -58 -50 -105 -165 -105 -256 0 -23 -10 -32 -58 -58 -52
-29 -70 -33 -202 -43 -80 -7 -154 -14 -165 -16 -18 -4 -24 -27 -55 -231 l-35
-227 -72 -49 -73 -49 0 -87 0 -87 -55 -63 -55 -63 0 -101 0 -101 35 -38 c19
-21 37 -50 41 -64 6 -24 9 -25 84 -25 106 0 120 -12 125 -105 l4 -69 48 -17
c26 -9 87 -37 134 -63 67 -36 104 -49 165 -58 108 -15 140 -7 208 52 67 59
105 80 142 80 21 0 25 -4 20 -17 -4 -10 -31 -81 -62 -158 l-54 -141 -176 19
-176 19 -39 -26 c-97 -65 -321 -307 -420 -454 l-49 -74 0 -129 0 -129 -30 0
c-27 0 -30 -3 -30 -30 0 -36 9 -35 -165 -15 -150 17 -636 21 -665 5 -10 -5
-28 -27 -41 -47 -39 -66 -61 -84 -164 -133 -131 -64 -175 -109 -258 -267 -58
-111 -64 -128 -70 -200 -3 -43 -13 -98 -22 -123 -39 -107 -37 -218 4 -247 13
-9 21 -25 21 -43 0 -31 -33 -66 -159 -172 -90 -75 -101 -100 -101 -226 0 -153
16 -181 136 -232 l69 -29 6 -103 c8 -132 22 -162 94 -193 58 -26 111 -75 141
-130 l19 -35 255 1 c140 1 300 -2 355 -6 l100 -7 75 76 74 76 203 0 202 0 -34
-81 c-43 -102 -70 -137 -142 -185 -95 -63 -103 -76 -103 -158 0 -80 21 -136
64 -176 34 -31 133 -40 188 -17 34 14 38 14 75 -9 67 -39 104 -42 273 -23 85
10 158 18 162 18 4 1 8 20 10 43 3 39 5 43 28 40 48 -6 80 -24 85 -48 3 -13 7
-35 10 -49 4 -16 16 -30 33 -36 39 -16 141 -5 189 19 57 29 123 40 123 20 0
-35 76 -164 132 -223 67 -72 106 -90 171 -80 68 11 117 39 196 109 l74 66 59
-53 c33 -28 68 -58 79 -66 10 -7 19 -18 19 -23 0 -5 -36 -70 -80 -144 l-79
-135 37 -16 c20 -9 60 -18 89 -21 42 -4 57 0 83 18 29 21 109 130 144 198 l17
32 78 0 79 0 55 60 54 60 70 0 71 0 7 -47 c11 -74 30 -109 94 -176 61 -64 93
-120 156 -272 l37 -90 2 -310 c1 -331 -2 -363 -49 -434 -67 -100 -81 -216 -60
-482 8 -109 15 -235 15 -280 l0 -83 -99 -175 c-54 -97 -114 -207 -134 -246
-49 -98 -61 -110 -162 -163 -64 -34 -96 -58 -112 -82 -41 -65 -74 -99 -126
-129 -115 -65 -456 -197 -658 -256 -131 -37 -279 -68 -287 -60 -2 2 3 33 12
69 9 36 16 67 16 69 0 2 -96 7 -212 10 -123 4 -244 13 -285 21 -78 16 -156 47
-185 73 -16 14 -21 14 -59 -1 -40 -16 -43 -16 -63 2 -50 46 -129 58 -159 24
-21 -23 -25 -75 -7 -97 36 -43 206 -87 412 -106 109 -11 127 -15 162 -41 40
-28 40 -28 200 -28 l159 0 -24 -26 c-38 -41 -181 -107 -243 -112 -68 -5 -90 7
-121 68 -14 27 -34 54 -44 60 -12 6 -98 10 -212 10 l-192 0 7 -43 c15 -90 58
-118 193 -125 l91 -5 7 -35 c19 -100 72 -153 172 -171 l70 -12 119 -120 119
-119 85 0 c86 0 86 0 121 -36 49 -52 77 -63 207 -85 63 -11 141 -26 173 -34
72 -19 135 -19 189 0 l42 15 69 -59 68 -59 103 -6 c57 -4 162 -10 234 -14 122
-8 133 -10 168 -37 34 -26 40 -27 70 -17 72 26 141 8 194 -52 37 -43 39 -52
13 -66 -30 -16 -94 -12 -142 9 -34 14 -81 20 -199 25 -148 7 -157 9 -200 36
-43 27 -63 31 -413 74 l-368 45 -35 30 c-48 43 -97 66 -259 123 -77 27 -178
69 -225 92 -47 24 -119 54 -160 66 -92 27 -162 70 -189 116 -15 26 -39 43 -94
68 -95 43 -483 271 -520 305 -16 14 -43 46 -60 71 -72 107 -108 147 -199 225
-116 99 -147 134 -294 330 -155 209 -295 428 -406 640 -52 99 -141 252 -198
340 -185 284 -267 468 -291 653 -6 48 -33 182 -60 297 -46 193 -53 214 -87
258 l-38 47 8 108 c4 59 9 133 12 165 3 48 1 62 -15 78 -10 10 -29 19 -42 19
-21 0 -24 7 -35 83 -7 45 -32 165 -57 267 -52 214 -57 275 -28 341 19 42 21
74 27 330 4 156 9 295 12 309 3 19 -5 38 -31 72 l-36 46 -9 618 c-5 341 -14
799 -20 1019 -5 220 -15 582 -20 805 -6 223 -17 596 -25 830 -36 1027 -40
1673 -17 2455 11 365 -14 347 482 331 152 -5 391 -4 630 3 212 6 759 16 1215
21 1320 15 1640 26 1975 64 19 2 98 3 175 2 117 -1 147 -5 180 -21z m377 -141
c38 -36 78 -118 78 -161 l0 -33 56 0 c61 0 81 8 137 55 l37 32 66 -23 c36 -13
83 -24 105 -24 34 0 39 -3 35 -17 -10 -32 -26 -125 -26 -151 l0 -25 155 6
c178 8 164 18 143 -104 -15 -93 -4 -119 51 -119 34 0 47 7 95 55 41 40 70 58
108 70 70 21 108 20 108 -2 0 -48 -15 -93 -37 -119 -19 -22 -23 -36 -19 -59
10 -52 37 -65 137 -65 49 0 89 -4 89 -9 0 -17 -29 -77 -50 -104 -26 -33 -75
-59 -153 -82 -31 -9 -63 -25 -71 -36 -34 -50 28 -115 139 -145 33 -9 115 -18
183 -21 134 -6 140 -10 97 -62 -21 -24 -41 -33 -101 -47 -115 -25 -161 -75
-179 -197 -9 -56 -19 -53 137 -31 62 9 132 13 156 10 83 -11 149 -63 229 -179
36 -52 61 -59 114 -31 22 11 39 35 64 89 18 40 42 78 53 84 28 15 113 13 133
-2 9 -7 26 -31 38 -54 32 -63 51 -71 179 -79 61 -4 112 -11 112 -15 0 -5 -27
-52 -60 -106 -33 -53 -60 -100 -60 -103 0 -10 88 -30 134 -30 31 0 53 8 82 28
30 22 55 30 104 34 36 3 85 15 110 27 48 22 129 28 161 11 42 -23 71 -133 47
-180 -11 -21 -27 -28 -96 -41 -95 -19 -129 -34 -138 -61 -11 -34 5 -67 65
-133 34 -37 69 -89 82 -120 l23 -55 84 0 84 0 -4 -61 c-6 -79 -18 -89 -117
-89 l-76 0 -27 -39 c-16 -22 -28 -44 -28 -49 0 -19 89 -91 126 -101 22 -6 85
-11 141 -11 l101 0 21 -33 c11 -18 25 -53 32 -78 10 -39 10 -52 -6 -91 -20
-53 -17 -52 -116 -69 -73 -12 -75 -12 -113 15 -87 59 -246 17 -246 -66 0 -16
11 -51 25 -78 36 -72 33 -102 -15 -146 -45 -42 -49 -67 -26 -144 l13 -45 222
-6 c193 -6 225 -9 242 -25 19 -17 49 -100 49 -138 0 -44 13 -50 82 -37 102 20
98 17 98 69 0 72 19 92 88 92 74 0 147 -22 146 -44 -1 -9 -15 -65 -30 -126
l-29 -110 -118 0 c-77 0 -129 -5 -151 -14 -45 -19 -104 -72 -138 -125 -25 -39
-28 -54 -28 -123 l0 -78 103 0 c56 0 166 -3 245 -7 l142 -6 0 -44 0 -43 -178
0 c-216 0 -232 -6 -275 -96 -62 -132 -58 -129 -121 -132 -62 -3 -71 -17 -40
-60 13 -19 24 -22 75 -22 33 0 91 5 130 12 53 8 76 8 95 -1 25 -11 26 -15 21
-59 -4 -26 -9 -59 -12 -73 -6 -23 -2 -28 35 -43 50 -20 74 -15 160 33 l65 36
298 3 297 3 0 -23 c0 -13 -7 -63 -15 -113 -8 -49 -11 -92 -7 -96 4 -3 46 -18
95 -33 48 -15 94 -29 102 -32 10 -4 15 0 15 15 0 16 20 31 90 66 50 25 96 42
103 39 7 -4 27 -18 44 -32 l32 -24 -25 -33 c-14 -18 -60 -61 -104 -94 -86 -67
-117 -114 -126 -198 -6 -46 -8 -50 -50 -67 -88 -36 -121 -109 -75 -167 10 -13
21 -34 25 -46 7 -22 5 -23 -52 -23 l-60 0 17 67 17 67 -33 29 c-38 33 -53 78
-82 238 -22 125 -45 182 -91 226 -52 51 -86 58 -270 58 -154 0 -168 -2 -214
-24 -71 -35 -157 -126 -197 -207 -32 -64 -34 -75 -33 -164 2 -147 29 -189 134
-206 l41 -7 110 -219 c61 -121 107 -223 104 -227 -4 -3 -65 -13 -137 -22
l-131 -17 -36 38 c-31 33 -44 39 -95 45 -66 9 -166 -15 -166 -39 0 -8 16 -74
35 -149 19 -74 35 -147 35 -160 0 -43 -25 -58 -83 -51 -68 8 -97 30 -122 91
-29 71 -49 98 -100 133 -51 35 -69 34 -109 -7 -26 -25 -26 -28 -26 -172 0
-122 4 -162 25 -246 33 -132 32 -145 -2 -145 -77 1 -340 136 -413 212 -115
120 -115 121 -55 197 23 29 33 51 30 65 -3 11 -21 122 -40 244 -28 173 -33
227 -24 238 10 12 -18 14 -187 15 -253 0 -351 8 -774 59 -287 35 -367 41 -473
37 -145 -4 -155 -9 -164 -76 l-6 -41 47 0 c33 0 46 -4 46 -14 0 -18 -23 -23
-136 -32 -51 -3 -96 -9 -101 -13 -5 -3 -17 -40 -26 -81 -10 -41 -20 -86 -24
-99 -6 -23 -6 -23 63 -17 232 20 224 20 224 -1 0 -13 -21 -31 -65 -57 -36 -21
-65 -40 -65 -43 0 -3 29 -46 64 -97 l64 -91 178 -18 c99 -10 203 -17 232 -17
l52 0 0 -56 c0 -30 5 -64 10 -75 14 -25 55 -45 110 -54 86 -13 85 -10 39 -76
-23 -33 -62 -77 -85 -99 l-44 -40 -187 0 -188 0 -24 -51 c-15 -31 -68 -96
-138 -170 -132 -140 -156 -180 -157 -264 l-1 -60 35 3 c112 10 506 130 560
170 19 15 75 68 125 118 90 90 165 139 206 132 17 -3 8 -20 -60 -125 -104
-157 -233 -278 -368 -343 -222 -108 -288 -142 -305 -157 -36 -32 -16 -90 63
-181 53 -60 62 -88 57 -174 -4 -65 -11 -90 -41 -151 -30 -58 -37 -83 -37 -129
0 -58 0 -58 -30 -58 -26 0 -30 3 -25 23 9 43 45 309 45 336 0 19 -15 42 -55
81 -64 64 -87 107 -110 215 -20 91 -37 125 -65 125 -10 0 -53 5 -94 11 l-74
11 -7 44 c-4 26 -15 53 -28 65 -20 18 -22 32 -25 127 -4 115 5 171 28 183 8 4
31 10 50 14 33 5 38 11 74 90 46 101 58 157 45 207 -12 48 -43 58 -157 51
-101 -7 -141 7 -167 57 l-16 30 137 0 136 0 34 34 c19 19 34 41 34 49 0 8 -18
31 -40 51 -46 41 -87 47 -160 21 -23 -8 -49 -15 -56 -15 -15 0 -38 32 -49 68
-6 21 -4 22 47 22 87 1 196 18 244 39 41 19 44 22 44 60 0 50 -26 71 -91 71
-57 0 -99 29 -99 68 0 14 5 64 12 110 l12 83 73 46 73 45 0 77 c0 55 6 88 21
121 11 25 23 68 26 97 6 50 6 51 49 63 l43 12 -24 43 c-48 82 -28 105 94 105
52 0 78 6 112 23 65 35 61 49 -22 85 -71 32 -71 32 -65 64 12 63 73 110 231
177 55 24 128 59 162 77 63 35 173 128 173 146 0 6 -11 23 -25 40 -15 17 -25
42 -25 60 0 17 33 104 72 192 107 236 147 271 331 283 l89 6 -4 -28 c-2 -22
-11 -30 -47 -42 -88 -29 -191 -116 -225 -188 -35 -72 -20 -119 86 -268 34 -47
38 -60 44 -137 5 -68 15 -107 50 -195 l45 -110 82 -43 82 -43 144 7 145 7 42
39 c71 65 87 112 94 263 l5 130 265 5 c246 5 268 7 310 27 25 12 54 29 65 38
20 16 20 17 -9 40 -16 13 -45 26 -65 30 -56 11 -221 7 -411 -9 -96 -8 -179
-11 -183 -7 -5 5 -7 17 -5 27 3 17 16 20 100 24 80 4 102 9 127 28 25 18 68
28 238 52 115 17 220 33 236 36 l27 6 -46 54 -46 54 16 65 c19 78 19 76 2 69
-8 -3 -36 21 -72 60 l-58 66 -148 0 -148 0 -38 35 c-51 46 -79 55 -168 55
l-74 0 0 -30 0 -30 -360 0 c-249 0 -374 4 -405 12 -43 12 -45 14 -45 48 l0 36
318 18 c174 9 355 20 401 23 l84 6 -7 151 c-3 83 -9 199 -13 259 l-6 107 72 0
71 0 0 46 0 45 -155 -3 c-109 -2 -158 -7 -167 -16 -7 -7 -15 -39 -18 -70 -5
-57 -5 -57 -40 -60 -46 -5 -92 10 -214 68 -85 40 -117 50 -201 61 -56 7 -217
44 -369 85 -148 41 -271 72 -274 70 -2 -2 2 -22 8 -44 13 -51 53 -92 123 -125
76 -36 97 -65 97 -138 l0 -59 -45 0 c-52 0 -50 -2 -170 139 l-80 94 -95 -102
-95 -101 -90 0 -90 1 28 23 c16 12 53 31 84 40 76 24 128 75 218 217 l77 119
-39 71 c-71 133 -123 159 -318 159 l-104 0 -39 58 c-64 95 -77 141 -75 265 2
125 26 191 76 215 61 29 136 -11 154 -83 7 -30 24 -44 158 -128 89 -55 149
-99 148 -108 0 -8 -4 -28 -8 -45 -6 -29 -5 -31 33 -42 22 -7 99 -12 171 -12
l133 0 16 41 c15 38 18 40 46 35 17 -4 42 -15 56 -25 23 -17 25 -25 30 -129 6
-126 17 -150 89 -190 69 -39 172 -51 437 -52 200 0 244 -3 254 -15 10 -12 4
-19 -34 -42 -26 -15 -70 -42 -98 -59 l-51 -32 24 -13 c18 -11 72 -14 216 -14
215 0 229 4 266 76 l17 34 -37 12 c-21 6 -50 12 -65 12 -40 1 -41 14 -3 62 19
24 35 47 35 52 0 4 -42 7 -94 7 -88 0 -140 7 -359 46 -75 14 -87 19 -82 33 3
10 -8 101 -25 203 -16 103 -30 193 -30 201 0 14 34 16 270 17 187 0 270 -3
270 -10 0 -21 -30 -69 -50 -80 -12 -6 -56 -8 -117 -4 l-98 7 -54 -63 -54 -62
49 5 c278 33 423 34 487 3 20 -10 37 -22 37 -26 0 -19 -99 -31 -295 -37 l-216
-6 -14 -35 c-8 -19 -13 -37 -10 -41 14 -23 121 -33 325 -29 206 3 216 4 248
26 53 38 58 57 26 103 -23 34 -25 43 -16 65 21 44 13 65 -58 171 -38 57 -70
108 -70 113 0 6 -31 10 -70 10 -105 0 -164 16 -236 66 -74 50 -86 53 -230 40
-124 -10 -188 5 -249 59 -40 35 -40 35 -135 35 -88 0 -100 -2 -141 -28 -77
-50 -149 -148 -149 -205 0 -14 9 -44 20 -68 24 -53 25 -85 4 -93 -9 -3 -46 -6
-82 -6 -56 0 -74 4 -105 25 l-37 26 0 75 c0 51 -4 76 -12 79 -7 2 -35 10 -61
17 l-48 13 31 42 31 42 -71 97 c-45 60 -76 94 -85 91 -7 -3 -52 -31 -99 -61
-48 -31 -109 -67 -136 -81 -52 -26 -69 -26 -197 1 -30 6 -37 2 -90 -53 -32
-33 -74 -86 -93 -118 l-35 -59 0 -151 c0 -135 2 -154 22 -190 63 -117 193
-177 436 -201 l58 -6 -7 -36 c-22 -123 -84 -250 -137 -282 -62 -39 -81 -30
-197 87 -128 130 -181 159 -269 149 -66 -8 -136 -38 -222 -97 l-63 -42 -84 12
c-47 6 -86 10 -89 8 -8 -9 16 -91 34 -116 10 -14 47 -39 81 -56 l62 -30 0 -50
c-1 -116 -37 -174 -124 -197 -37 -10 -48 -19 -75 -65 -18 -29 -35 -53 -39 -53
-4 0 -34 39 -67 86 -68 100 -91 118 -131 108 -41 -10 -104 -46 -104 -60 0 -6
21 -80 46 -164 26 -83 42 -155 38 -159 -12 -11 -236 -102 -240 -98 -2 2 1 30
6 62 7 41 21 76 45 110 32 47 35 58 35 121 0 131 -48 257 -110 289 -18 9 -57
15 -105 15 l-77 0 7 -42 c11 -68 27 -91 80 -118 41 -21 51 -31 57 -60 13 -66
-23 -161 -130 -343 l-40 -68 84 -140 c100 -167 162 -250 217 -290 33 -24 50
-29 97 -29 164 0 254 80 267 240 3 39 9 73 13 75 4 2 25 7 48 11 l40 6 93
-191 c52 -108 99 -193 108 -195 9 -3 64 -12 123 -22 l107 -17 35 -81 35 -81
58 -7 c110 -13 168 -30 251 -74 70 -37 93 -44 139 -44 l55 0 -4 -55 c-3 -30
-7 -57 -9 -58 -8 -7 -684 32 -737 42 -74 15 -92 4 -92 -54 0 -75 -1 -74 347
-72 166 1 303 0 306 -3 3 -3 2 -19 0 -36 -5 -30 -21 -40 -314 -198 l-310 -166
-120 0 -120 0 -43 -43 c-29 -29 -49 -62 -61 -98 -27 -83 -36 -89 -124 -89
l-76 0 -43 -50 c-29 -34 -65 -60 -116 -86 -98 -48 -148 -49 -232 -6 -95 48
-104 64 -104 190 0 150 17 198 101 287 l67 70 68 -29 c52 -22 90 -30 156 -34
l86 -4 21 40 c12 23 39 59 61 81 38 38 40 42 40 104 l0 64 59 22 c68 25 75 32
90 86 16 62 67 103 224 180 128 63 142 73 145 98 2 16 -4 39 -13 53 -13 21
-23 24 -73 24 -160 0 -274 -67 -389 -227 l-45 -63 -80 0 c-70 0 -83 -3 -114
-26 -31 -24 -34 -31 -34 -83 -1 -76 -14 -140 -34 -159 -13 -13 -45 -18 -139
-23 -91 -5 -136 -12 -178 -29 l-57 -22 -68 34 c-55 26 -73 41 -87 70 -24 49
-15 111 22 156 l27 34 178 -18 179 -18 24 28 c17 20 21 34 17 54 -10 42 -32
60 -91 73 -29 7 -61 18 -69 24 -16 11 -13 14 129 107 6 3 -15 48 -51 106 -62
100 -62 101 -62 176 0 73 -1 77 -35 110 -19 19 -65 53 -103 75 -77 45 -92 68
-92 145 l0 53 47 18 c108 42 171 149 180 310 6 115 -2 129 -78 130 l-54 0 -47
-97 c-26 -54 -52 -98 -57 -98 -6 0 -45 11 -88 25 -97 31 -99 31 -127 -2 -16
-18 -36 -28 -67 -32 -42 -6 -44 -7 -52 -51 -17 -95 -5 -124 98 -229 98 -103
141 -172 152 -247 l6 -45 -29 7 c-59 14 -77 26 -129 82 l-54 57 -163 0 c-156
0 -165 -1 -220 -27 -150 -70 -257 -265 -183 -334 38 -35 34 -103 -12 -234 -31
-90 -37 -118 -37 -195 -1 -103 13 -132 87 -186 36 -26 48 -29 119 -29 98 0
134 15 189 81 37 44 105 96 114 87 7 -7 -15 -89 -35 -128 -23 -46 -26 -108 -6
-136 13 -18 31 -19 238 -24 193 -4 223 -7 223 -21 0 -8 -49 -59 -109 -112
l-108 -97 -75 0 -74 0 -61 -57 c-33 -32 -94 -106 -134 -165 -82 -117 -130
-166 -175 -175 l-29 -5 0 -129 0 -129 30 0 c29 0 30 -2 30 -45 l0 -45 55 0 55
0 26 52 c42 83 131 162 248 218 85 41 214 80 266 80 6 0 10 -24 10 -57 0 -32
6 -69 13 -82 22 -44 39 -47 119 -22 l73 23 190 -36 190 -37 37 43 c21 24 38
50 38 60 0 9 -9 45 -20 80 -38 121 -32 128 110 128 l105 0 74 115 c40 64 77
117 81 120 3 2 45 9 92 15 156 19 263 66 438 190 52 37 109 75 127 84 35 18
108 22 118 6 3 -5 -3 -27 -14 -49 -15 -28 -36 -48 -73 -68 -44 -23 -60 -41
-97 -101 -46 -78 -83 -104 -164 -117 -60 -10 -77 -34 -77 -111 0 -59 -2 -65
-19 -59 -14 4 -40 -19 -117 -105 l-98 -110 -71 0 -72 0 -64 -86 c-110 -150
-237 -241 -348 -252 l-48 -4 -7 38 c-9 50 -31 82 -62 94 -16 6 -122 4 -300 -7
-257 -15 -281 -15 -346 0 l-69 17 -96 -61 c-101 -64 -170 -94 -244 -105 -72
-10 -106 -23 -274 -102 -124 -59 -172 -77 -216 -80 -69 -5 -450 27 -463 39 -5
5 -21 30 -35 56 l-26 48 -135 17 c-74 9 -146 15 -160 12 -14 -2 -54 -27 -90
-55 -36 -27 -87 -65 -114 -83 l-48 -34 -56 19 c-30 10 -78 36 -106 58 -69 52
-82 58 -147 66 -51 6 -61 4 -111 -24 -91 -52 -91 -42 3 69 91 108 99 125 99
205 l0 65 -85 0 -85 0 0 29 c0 27 4 31 55 46 55 15 55 16 55 55 0 41 -26 80
-53 80 -7 0 -46 -16 -86 -35 -98 -47 -150 -58 -206 -44 -25 6 -47 15 -50 18
-8 14 43 106 76 138 48 45 98 63 175 63 59 0 65 2 59 18 -4 9 -50 143 -102
297 l-94 280 13 55 c18 79 42 100 117 100 65 0 82 -12 96 -72 l7 -27 69 34 69
35 0 89 c0 85 1 90 35 134 39 51 79 83 116 91 16 4 57 -8 123 -37 l100 -43 31
40 c64 84 148 98 219 35 45 -39 64 -81 103 -233 56 -217 106 -276 238 -276 75
0 120 26 213 123 63 67 72 89 51 130 -25 47 -64 49 -112 7 -54 -47 -93 -37
-128 32 -24 47 -46 214 -35 271 10 51 40 68 144 79 104 11 136 29 140 79 4 51
-29 96 -88 122 l-50 22 0 66 c0 59 3 69 29 96 16 17 35 47 42 68 l14 37 50 -6
c27 -3 95 -8 150 -12 l100 -6 -51 53 -52 54 7 58 c4 34 13 62 22 68 8 5 39 9
70 9 44 0 71 -8 130 -37 41 -20 94 -38 119 -41 41 -4 50 0 97 37 62 49 194
198 230 259 23 38 25 51 20 107 -7 74 -33 130 -86 188 -68 75 -71 96 -35 236
12 47 12 58 -1 77 -17 27 -74 49 -80 31 -48 -139 -83 -187 -171 -236 -32 -19
-63 -46 -75 -66 -18 -30 -23 -33 -49 -25 -49 14 -53 19 -47 67 6 55 23 74 113
122 69 37 96 68 109 124 l7 27 -61 0 c-58 0 -61 1 -56 23 7 31 25 149 25 165
0 29 -156 -22 -202 -66 -48 -45 -30 -99 41 -121 l41 -12 -46 -82 c-25 -45 -55
-101 -67 -124 l-21 -43 -72 0 -72 0 -4 101 c-2 86 -6 103 -22 115 -22 16 -88
19 -114 5 -9 -4 -34 -11 -54 -15 -37 -7 -38 -6 -38 24 0 17 6 46 14 65 12 29
22 36 61 46 62 16 69 32 61 146 -9 137 -8 139 80 159 l74 16 0 67 c0 58 -5 96
-27 218 l-5 32 87 3 88 3 11 32 c6 18 19 42 29 54 17 20 25 21 90 14 143 -14
160 -13 174 15 18 35 17 182 -1 225 -14 32 -13 39 13 102 l27 68 58 3 c70 4
99 -12 116 -63 6 -19 16 -35 21 -35 5 0 55 36 111 80 98 76 105 80 155 80 131
0 225 41 264 115 30 57 53 64 141 41 l68 -18 50 54 c54 58 57 66 36 106 -7 15
-17 38 -21 51 -7 24 -6 24 33 -7 l40 -32 78 11 c202 28 336 110 370 225 13 46
13 57 1 87 -28 66 -131 123 -203 112 -56 -8 -78 -36 -106 -132 -12 -43 -31
-84 -46 -98 -22 -22 -33 -25 -103 -25 -103 0 -109 8 -109 141 0 91 2 98 30
137 24 34 30 52 30 96 0 136 46 251 117 297 52 32 140 54 188 45 22 -4 51 -25
88 -63 51 -53 57 -55 91 -49 46 9 59 34 61 119 3 104 8 107 177 107 76 0 138
3 138 6 0 4 -9 21 -20 39 -28 46 -42 123 -26 153 36 68 139 82 198 26z m718
-2033 c0 -46 3 -52 43 -86 36 -31 38 -36 17 -31 -14 3 -33 6 -43 6 -9 0 -27
11 -38 24 -12 14 -39 32 -60 40 -36 14 -37 17 -29 45 13 47 18 51 66 51 l44 0
0 -49z m825 -15 c35 -15 48 -32 59 -78 l6 -28 -115 0 c-63 0 -115 2 -115 5 0
2 7 23 17 46 24 62 81 83 148 55z m-59 -231 c25 -7 40 -40 49 -110 4 -27 22
-113 40 -190 19 -77 32 -141 30 -144 -11 -11 -60 14 -95 49 -71 71 -120 198
-120 312 0 63 25 104 58 94 9 -2 27 -7 38 -11z m-1325 -696 c11 -6 33 -38 48
-72 42 -93 89 -134 170 -152 l33 -7 -43 -44 c-38 -38 -43 -49 -43 -91 l-1 -47
120 -29 c66 -17 121 -31 123 -32 1 -1 -3 -14 -9 -29 -12 -26 -12 -26 -131 -26
-84 0 -129 4 -155 15 -49 21 -117 77 -143 120 l-22 35 -79 0 c-110 0 -119 10
-119 132 0 80 3 97 26 135 38 65 95 103 156 103 27 0 58 -5 69 -11z m1935
-337 c6 -4 16 -17 23 -29 l12 -23 -86 0 -85 0 0 30 0 30 63 0 c34 0 67 -4 73
-8z m-858 -99 c68 -16 81 -16 219 0 81 9 149 15 151 12 12 -12 -22 -88 -53
-120 -42 -41 -110 -64 -215 -72 l-76 -6 -58 -254 c-46 -203 -67 -274 -101
-348 l-43 -92 29 -53 c16 -29 29 -55 29 -57 0 -1 -58 -3 -130 -3 l-130 0 0
-70 c0 -78 -5 -82 -57 -50 -59 36 -88 104 -105 251 l-11 97 -106 4 c-100 3
-109 5 -140 31 -30 25 -39 27 -123 27 l-91 0 7 43 c4 23 11 65 16 92 5 28 9
98 9 158 l1 107 34 0 c55 0 78 -26 85 -99 l6 -62 225 -119 224 -120 39 37 c81
78 164 225 212 373 21 65 29 112 33 198 5 130 -2 124 120 95z m-1213 -69 c26
-13 47 -36 63 -65 23 -43 23 -44 3 -47 -28 -5 -279 26 -318 39 -18 6 -33 15
-33 19 0 5 14 26 32 46 l32 36 90 -4 c68 -2 101 -8 131 -24z m2070 -16 c-4
-13 -18 -33 -31 -45 -23 -21 -34 -23 -155 -23 l-130 0 3 27 c2 23 10 29 43 36
75 15 150 25 213 26 61 1 63 0 57 -21z m-2557 -162 c47 -42 66 -111 42 -156
-5 -10 -44 -37 -87 -60 -75 -40 -78 -41 -123 -29 -25 6 -48 15 -52 18 -15 13
22 49 76 74 58 28 68 44 81 139 8 51 19 54 63 14z m1292 -26 c0 -25 -4 -30
-23 -30 -31 0 -35 5 -29 35 3 18 11 25 28 25 20 0 24 -5 24 -30z m-917 -158
c5 -121 20 -190 44 -205 5 -3 38 -11 73 -16 35 -6 67 -14 72 -19 13 -13 -76
-88 -128 -108 -58 -22 -112 -8 -149 40 -66 87 -112 358 -67 399 26 24 62 36
108 36 l41 1 6 -128z m852 96 c29 -13 43 -53 28 -77 -18 -29 -58 -36 -110 -19
-42 13 -48 19 -51 45 -3 27 1 30 45 45 61 20 57 20 88 6z m-1465 -142 c0 -6
-7 -22 -16 -34 -12 -17 -25 -22 -63 -22 -26 0 -50 3 -54 6 -8 8 13 67 30 81
17 14 103 -12 103 -31z m2688 -117 c55 -11 83 -36 101 -88 20 -60 15 -76 -26
-90 -47 -16 -225 -26 -287 -17 -82 13 -99 59 -45 121 64 73 150 97 257 74z
m-2691 -32 c12 -12 25 -35 29 -51 7 -29 7 -29 -32 -22 -67 12 -72 16 -88 63
l-16 45 43 -6 c23 -4 52 -17 64 -29z m3321 -49 l-3 -32 -135 -32 c-74 -17
-138 -29 -142 -27 -5 2 -8 17 -8 34 l0 29 64 0 c49 0 69 5 90 21 30 24 68 37
109 38 26 1 28 -2 25 -31z m-4340 -48 c18 -11 40 -36 48 -55 18 -44 30 -125
18 -125 -20 -1 -364 114 -364 121 0 4 15 24 34 43 l33 36 99 0 c82 0 105 -4
132 -20z m3834 -217 c63 -58 78 -99 78 -223 0 -122 -17 -172 -71 -212 -69 -52
-73 -52 -134 -14 -144 93 -203 212 -205 413 0 41 1 42 48 56 26 8 91 15 144
16 l98 1 42 -37z m-4022 -105 l0 -81 -40 -37 c-49 -46 -55 -93 -15 -130 63
-59 0 -133 -132 -155 l-43 -7 0 102 c0 102 10 141 44 169 12 10 16 33 16 94 0
69 3 84 22 104 18 19 32 23 85 23 l63 0 0 -82z m5750 -454 c8 -8 14 -34 14
-57 l1 -41 -175 -42 c-96 -24 -192 -46 -212 -49 l-38 -7 0 66 0 65 73 41 72
40 126 0 c102 0 129 -3 139 -16z m-83 -306 c47 -49 83 -138 103 -254 18 -102
18 -103 75 -168 31 -35 57 -68 57 -73 0 -13 -83 -42 -121 -42 -49 -1 -100 56
-161 182 -55 114 -80 197 -80 270 0 44 4 54 36 83 19 19 41 34 48 34 7 0 26
-15 43 -32z m1333 -64 c7 -20 10 -56 7 -81 -6 -53 -30 -81 -137 -161 -41 -30
-90 -72 -109 -91 -40 -43 -79 -123 -89 -183 l-7 -43 -63 -3 c-55 -3 -65 0 -87
22 -20 20 -24 32 -19 53 12 49 50 116 112 196 62 81 67 101 34 140 -11 12 -30
17 -69 17 -29 0 -53 4 -53 8 0 32 33 112 46 112 13 0 225 -51 278 -67 14 -4
18 -1 13 10 -4 11 12 29 55 61 34 25 65 46 69 46 4 0 13 -16 19 -36z m-718
-431 c37 -74 43 -95 44 -156 l1 -69 89 -75 c49 -41 90 -76 91 -77 2 -1 -38
-38 -88 -81 -53 -47 -88 -84 -85 -92 8 -20 -41 -16 -89 7 -23 11 -51 34 -64
51 -41 55 -88 69 -244 69 -102 0 -139 -3 -141 -12 -22 -71 -46 -118 -76 -150
-35 -36 -40 -38 -96 -38 -39 0 -68 6 -83 16 -21 15 -23 22 -17 63 3 25 8 56
12 68 5 19 -3 26 -63 56 -42 22 -62 37 -53 40 8 3 87 13 175 21 238 24 233 23
251 58 8 16 47 64 85 105 92 99 114 136 140 230 23 85 33 108 58 137 15 17 18
16 63 -33 26 -29 67 -90 90 -138z m-3304 111 c28 -20 30 -69 3 -84 -11 -5 -36
-10 -55 -10 -34 0 -36 2 -36 33 0 38 24 77 48 77 10 0 28 -7 40 -16z m633 -54
c10 -6 28 -30 40 -53 32 -62 56 -84 110 -98 45 -12 48 -15 42 -38 -11 -50 -26
-56 -125 -54 -116 2 -216 27 -276 67 -47 31 -120 122 -108 133 3 4 37 17 74
30 73 24 207 32 243 13z m-1589 -238 c25 -10 27 -14 17 -39 -25 -65 -58 -92
-195 -158 -152 -73 -142 -59 -123 -190 6 -42 9 -78 7 -81 -3 -2 -25 -2 -49 2
-93 15 -114 85 -58 197 46 92 134 220 175 257 36 31 38 32 118 28 45 -3 93
-10 108 -16z m1138 -2 c21 -21 40 -61 40 -83 0 -10 -42 -9 -182 5 -101 9 -191
17 -200 18 -12 0 -18 8 -18 25 0 20 5 25 28 26 15 0 45 6 67 14 22 7 86 13
143 14 90 1 104 -1 122 -19z m924 -145 c9 -30 19 -60 21 -68 4 -9 -18 -24 -67
-45 -40 -18 -76 -32 -80 -32 -5 0 -8 15 -8 33 0 45 -11 58 -64 71 l-46 12 34
33 c36 35 76 48 153 50 l42 1 15 -55z m-6389 -65 c0 -20 -6 -26 -27 -28 -25
-3 -28 0 -28 28 0 28 3 31 28 28 21 -2 27 -8 27 -28z m4215 -116 c0 -20 -5
-24 -30 -24 -25 0 -30 4 -30 24 0 18 6 26 23 28 31 5 37 1 37 -28z m-1349 -88
c22 -43 38 -80 36 -82 -4 -5 -269 26 -275 31 -2 2 4 28 14 58 l17 55 76 19
c52 13 78 16 84 9 4 -6 26 -46 48 -90z m3201 83 c46 -12 58 -44 37 -103 -18
-52 -80 -99 -166 -126 -36 -11 -68 -18 -71 -16 -2 3 21 36 52 74 53 66 56 72
56 126 0 54 1 56 28 56 15 0 44 -5 64 -11z m-1612 -299 c52 -6 96 -13 98 -15
3 -2 1 -21 -2 -41 -9 -45 -46 -84 -81 -84 -36 0 -71 -39 -80 -88 l-7 -42 -54
0 c-54 0 -54 0 -54 31 0 34 15 68 38 85 15 11 14 57 -4 142 -6 31 -6 32 22 27
16 -3 72 -9 124 -15z m1564 -86 c3 -9 6 -94 6 -189 0 -164 -1 -174 -20 -180
-27 -8 -57 -53 -86 -127 -51 -131 -116 -163 -291 -142 l-51 7 124 165 125 166
-7 81 -6 80 93 77 c52 43 97 77 100 78 4 0 10 -7 13 -16z m-2604 -51 c21 -65
60 -129 90 -146 35 -21 67 -21 115 -1 l38 15 46 -44 c25 -25 80 -64 121 -87
41 -23 90 -53 108 -66 45 -35 98 -117 123 -191 11 -35 24 -63 28 -63 4 0 71
29 150 65 79 36 145 65 147 65 2 0 4 -129 4 -286 l0 -287 -65 6 c-86 8 -172
53 -234 124 -25 28 -78 107 -117 175 l-71 123 -76 5 -76 5 -32 45 c-82 116
-141 155 -227 148 -52 -5 -58 -8 -101 -58 -44 -52 -90 -80 -131 -80 -11 0 -20
4 -20 10 0 5 18 51 41 101 47 104 48 135 12 274 -12 44 -24 104 -27 133 l-5
52 74 0 73 0 12 -37z m-402 -178 c-12 -24 -25 -42 -29 -40 -4 3 -16 20 -27 39
-23 39 -20 43 45 45 l33 1 -22 -45z m1690 -815 c17 -11 32 -25 32 -31 0 -6
-13 -30 -30 -54 -35 -50 -37 -79 -16 -243 7 -57 10 -105 6 -107 -16 -10 -88
20 -123 51 l-37 34 -135 0 c-110 0 -137 3 -141 15 -4 8 31 59 88 129 l93 115
50 0 c67 1 116 27 138 74 21 42 30 44 75 17z m202 -585 c0 -9 -40 -85 -44 -85
-4 0 -46 68 -46 75 0 2 15 6 33 8 17 2 38 5 45 5 6 1 12 0 12 -3z m-320 -70
l0 -45 -130 0 -130 0 0 29 c0 33 -8 30 155 50 114 14 105 17 105 -34z m230
-200 l0 -45 -122 0 c-152 1 -189 19 -138 70 18 18 33 20 140 20 l120 0 0 -45z
m-580 -23 c0 -55 -16 -71 -82 -78 l-58 -7 0 62 0 61 70 0 70 0 0 -38z m516
-177 c30 -12 35 -19 32 -42 -2 -19 -12 -32 -31 -41 -48 -23 -204 -33 -390 -26
l-179 7 29 29 c27 27 43 31 199 57 195 33 289 37 340 16z m128 -212 c11 -37
36 -205 56 -378 37 -316 82 -497 155 -630 47 -86 216 -280 265 -305 67 -34
303 -71 515 -79 193 -8 215 -12 250 -51 11 -12 41 -33 68 -46 45 -24 47 -26
44 -62 l-4 -37 -89 -12 c-102 -13 -93 -18 -169 81 -34 44 -57 65 -72 66 -12 0
-93 -11 -180 -25 -87 -14 -164 -25 -170 -25 -8 0 -13 14 -13 38 l0 39 -137 16
c-76 10 -142 17 -146 17 -10 0 -8 -258 2 -264 4 -3 128 4 275 15 232 17 274
18 310 6 32 -11 42 -19 44 -39 3 -25 3 -25 -92 -30 -99 -5 -112 -10 -147 -59
l-20 -28 42 -27 c23 -14 67 -53 98 -85 58 -63 115 -89 189 -89 l34 0 -46 -83
c-73 -135 -92 -133 354 -47 252 48 381 77 399 89 48 34 92 52 148 61 70 12
108 4 121 -25 10 -22 9 -23 -49 -30 -85 -10 -136 -25 -284 -85 -181 -73 -253
-89 -440 -100 -232 -14 -257 -18 -364 -58 -92 -34 -103 -36 -252 -40 -120 -3
-174 0 -238 13 -46 9 -84 15 -86 13 -1 -2 -15 -27 -29 -56 -31 -61 -29 -65 38
-114 l39 -28 224 0 225 0 141 52 c126 45 153 52 240 56 103 5 267 -5 267 -16
0 -4 -116 -53 -258 -109 -247 -97 -261 -101 -354 -107 -92 -6 -158 -20 -378
-82 -90 -26 -107 -27 -345 -29 -244 -1 -252 -2 -324 -28 -73 -26 -80 -27 -306
-27 l-232 0 -39 31 c-38 30 -40 31 -116 24 -52 -4 -78 -3 -78 4 0 6 16 39 35
74 l35 64 -92 41 c-76 33 -144 51 -368 98 -151 31 -284 60 -296 65 -15 5 -23
19 -27 50 -13 96 -101 121 -227 65 -61 -28 -68 -29 -169 -23 -249 14 -602 124
-721 225 l-35 30 110 52 c105 49 212 93 700 284 245 95 332 142 450 241 182
154 300 203 520 220 44 3 108 8 143 11 96 7 90 0 -103 -115 -38 -23 -94 -59
-124 -80 -29 -21 -84 -48 -122 -60 -75 -24 -99 -47 -99 -96 0 -49 25 -75 70
-75 33 0 44 6 73 40 19 22 38 40 43 39 5 0 29 -24 53 -52 24 -29 59 -69 78
-90 l34 -38 224 60 c123 34 226 61 229 61 4 0 6 -18 6 -40 l0 -40 71 0 c58 0
70 3 66 14 -4 9 1 17 11 20 48 14 195 46 198 43 2 -2 -4 -54 -13 -115 l-17
-112 -71 0 c-60 0 -81 5 -126 29 -74 39 -150 54 -245 49 -146 -9 -607 -62
-638 -74 -12 -5 -16 -21 -16 -68 0 -37 -6 -70 -14 -81 -12 -17 -18 -18 -82 -6
-66 12 -72 12 -122 -10 l-53 -24 49 -48 49 -48 242 22 c272 24 277 23 239 -41
-12 -19 -26 -42 -31 -51 -7 -11 -4 -24 12 -46 22 -30 24 -30 143 -37 253 -13
303 -6 345 48 12 15 24 44 28 66 6 34 10 39 28 35 157 -35 145 -38 199 53 61
101 101 138 182 168 86 31 109 31 136 -3 12 -16 45 -52 72 -81 l51 -54 145 15
c99 11 148 20 156 31 6 8 41 49 78 93 37 43 66 83 65 88 -1 6 -23 27 -50 48
l-49 39 -199 16 c-109 9 -199 19 -199 23 0 4 14 18 31 31 82 62 79 55 79 187
l0 121 -41 6 c-22 4 -54 18 -69 31 -24 20 -30 35 -36 84 -8 69 -14 74 -107 84
l-58 7 -34 69 c-20 38 -40 69 -46 69 -6 0 -115 -12 -242 -27 -307 -35 -610
-39 -671 -8 -22 11 -42 26 -44 33 -8 27 146 76 363 114 99 17 174 22 424 25
l304 5 -6 56 c-9 81 -25 92 -138 92 -49 0 -89 4 -89 9 0 5 52 17 115 27 63 10
115 21 115 24 0 4 -7 30 -15 58 l-16 52 -160 0 -160 0 3 28 3 27 157 3 158 3
14 28 c14 26 13 31 -26 95 -43 73 -43 70 0 139 15 24 16 30 2 54 -23 41 -64
60 -180 82 -109 22 -205 50 -197 58 3 2 58 -3 124 -13 l118 -17 80 41 c93 48
92 47 99 25z m-259 -257 c75 -10 80 -13 83 -37 3 -25 0 -27 -80 -43 -58 -11
-136 -16 -260 -16 l-178 0 0 28 c0 27 3 28 123 59 129 33 140 33 312 9z m-262
-276 c-13 -10 -59 -21 -119 -28 -55 -7 -116 -15 -136 -18 -36 -5 -38 -4 -38
20 0 14 6 26 13 27 6 0 75 8 152 17 142 18 167 14 128 -18z m-18 -838 c6 -4
18 -17 28 -29 18 -21 18 -22 -5 -34 -13 -7 -79 -16 -148 -21 -69 -4 -144 -11
-166 -14 -41 -6 -41 -5 -37 20 7 35 47 51 148 59 45 3 92 10 105 16 30 12 61
13 75 3z m2271 -263 c46 -12 51 -18 34 -50 -9 -16 -22 -19 -95 -19 -75 0 -85
2 -85 18 0 10 7 28 16 40 17 25 58 29 130 11z m872 -56 c116 -9 212 -19 212
-22 0 -3 -15 -26 -33 -50 -26 -35 -51 -52 -134 -91 -74 -35 -105 -45 -111 -37
-5 7 -28 45 -51 85 l-42 72 -159 0 -160 0 0 24 c0 15 7 26 18 29 41 11 263 6
460 -10z m-1043 -202 l50 -19 -40 -17 c-108 -46 -185 -67 -267 -72 -53 -4 -88
-2 -88 4 0 13 48 57 85 77 88 48 179 58 260 27z m85 -460 c24 -7 24 -7 -12
-29 -46 -28 -48 -28 -48 8 0 32 9 35 60 21z"/>
<path d="M9650 12096 c-84 -15 -137 -42 -155 -76 -14 -28 -14 -28 23 -35 58
-10 635 -25 747 -19 104 6 192 25 231 50 19 13 54 69 54 88 0 12 -833 5 -900
-8z"/>
<path d="M6458 11942 l-118 -3 0 -59 0 -60 48 0 c26 0 169 7 317 16 216 12
414 14 980 11 410 -3 734 -9 766 -15 30 -5 217 -11 415 -13 333 -4 361 -3 385
14 25 17 39 41 53 92 6 20 1 20 -1362 20 -752 0 -1420 -1 -1484 -3z"/>
<path d="M9746 11768 c27 -90 121 -110 379 -84 178 19 339 21 400 6 22 -5 50
-10 62 -10 20 0 21 4 16 38 -12 76 13 72 -450 72 l-414 0 7 -22z"/>
<path d="M9216 11338 l-25 -23 15 -220 15 -220 32 -27 c18 -15 57 -42 87 -60
50 -30 61 -33 137 -33 75 0 85 2 108 26 19 19 28 41 34 82 4 32 5 59 3 62 -3
3 -64 5 -136 5 -125 0 -133 1 -169 26 -22 15 -36 31 -33 39 26 69 28 94 12
141 -17 49 -16 49 6 64 53 35 71 60 64 93 -3 18 -16 40 -27 50 -31 25 -92 22
-123 -5z"/>
<path d="M9970 11231 c0 -43 14 -80 34 -93 6 -4 82 -8 169 -8 154 0 158 1 182
24 20 20 24 31 19 58 -11 54 -22 61 -79 41 -51 -17 -69 -16 -282 14 l-43 6 0
-42z"/>
<path d="M9072 10507 l-23 -13 28 -36 c45 -58 78 -73 161 -73 62 0 76 3 88 20
19 25 11 85 -13 102 -23 17 -210 17 -241 0z"/>
<path d="M8816 10105 c-92 -13 -172 -27 -177 -32 -5 -5 -11 -22 -15 -38 -5
-29 -3 -31 48 -49 52 -17 59 -17 186 -1 l132 18 0 63 c0 35 -1 63 -2 63 -2 -1
-79 -12 -172 -24z"/>
<path d="M2540 11944 c-47 -7 -150 -26 -230 -41 l-145 -26 -690 -1 c-641 -1
-693 -2 -736 -19 -58 -22 -80 -46 -82 -87 l-2 -30 627 -6 c554 -5 643 -4 773
11 80 10 148 15 151 13 2 -3 -7 -31 -21 -63 -14 -31 -23 -60 -20 -63 6 -6 28
-8 850 -57 325 -19 609 -37 633 -40 l44 -5 -8 32 c-3 18 -12 50 -18 72 l-12
40 -204 -2 c-113 -1 -266 -5 -340 -8 -125 -5 -162 -2 -504 45 -203 28 -371 53
-372 54 -2 2 132 28 298 58 187 34 303 59 306 67 2 6 -10 25 -26 42 -29 28
-34 30 -109 29 -43 -1 -116 -7 -163 -15z"/>
<path d="M3560 11945 c-162 -7 -341 -13 -397 -14 -111 -1 -129 -11 -65 -38
105 -44 169 -48 746 -47 l549 1 19 22 c23 30 24 61 1 61 -10 0 -83 7 -163 15
-168 17 -285 17 -690 0z"/>
<path d="M1355 11659 c-451 -20 -662 -24 -717 -14 l-38 7 0 -45 c0 -56 13 -93
37 -105 12 -6 109 -5 273 4 351 18 1047 54 1060 54 6 0 10 25 10 60 l0 60
-112 -1 c-62 -1 -293 -10 -513 -20z"/>
<path d="M2863 11410 c-27 -11 -43 -40 -43 -79 l0 -31 100 0 100 0 0 -25 c0
-14 2 -25 5 -25 2 0 29 12 59 27 l54 26 -5 41 c-8 65 -19 70 -141 73 -59 2
-117 -1 -129 -7z"/>
<path d="M620 11408 c0 -3 13 -34 29 -70 l30 -65 138 -6 c76 -3 219 -11 318
-18 223 -14 327 -9 577 27 l197 28 92 -18 92 -17 23 23 c13 13 26 38 30 56 l7
32 -94 0 c-94 0 -680 13 -1176 26 -145 3 -263 4 -263 2z"/>
<path d="M646 11144 c-22 -8 -41 -16 -44 -18 -2 -3 1 -21 8 -40 15 -48 40 -53
159 -32 l98 18 94 -37 c139 -55 264 -64 291 -23 15 25 9 104 -9 120 -31 26
-50 28 -140 13 -48 -8 -123 -15 -165 -15 -76 0 -77 0 -80 -27 -3 -26 -3 -26
-31 15 -27 41 -28 42 -85 41 -31 0 -75 -7 -96 -15z"/>
<path d="M502 10873 c-6 -10 -12 -41 -14 -69 l-3 -49 397 0 396 0 25 23 c13
12 28 43 34 68 l11 47 -237 -9 c-286 -11 -467 -11 -542 0 -51 8 -58 6 -67 -11z"/>
<path d="M2482 10725 c-28 -23 -62 -80 -62 -103 0 -35 251 -59 310 -29 47 24
34 114 -21 142 -18 10 -58 15 -113 15 -75 0 -88 -3 -114 -25z"/>
<path d="M578 10521 l-32 -29 27 -39 27 -39 315 -13 c174 -8 318 -11 320 -9 7
7 -56 119 -69 123 -6 2 -121 9 -256 15 -135 6 -257 13 -273 15 -20 3 -36 -3
-59 -24z"/>
<path d="M2425 10371 c-63 -16 -105 -61 -120 -128 l-7 -33 84 0 c74 0 89 4
134 30 50 28 84 69 99 118 6 22 5 22 -77 21 -46 -1 -96 -4 -113 -8z"/>
<path d="M530 10227 c-23 -11 -60 -91 -48 -103 12 -11 412 -54 507 -54 109 0
163 9 196 34 20 14 20 15 -5 42 -51 54 -89 64 -270 64 -98 0 -197 6 -245 15
-98 18 -104 18 -135 2z"/>
<path d="M600 9915 c0 -63 -26 -52 210 -85 80 -11 155 -23 167 -25 43 -10 95
119 61 153 -9 9 -73 12 -225 12 l-213 0 0 -55z"/>
<path d="M680 9640 c-22 -22 -28 -97 -10 -131 15 -27 90 -27 115 1 24 26 12
84 -25 122 -34 33 -53 35 -80 8z"/>
<path d="M742 9314 l-52 -26 0 -59 0 -59 93 0 c86 1 94 2 126 29 l34 28 -22
36 c-29 48 -67 77 -100 77 -15 0 -50 -12 -79 -26z"/>
<path d="M805 9086 l-200 -31 -3 -57 -3 -58 261 0 260 0 0 40 c0 36 3 40 25
40 14 0 25 4 25 9 0 13 -68 71 -97 82 -33 12 -38 12 -268 -25z"/>
<path d="M782 8806 c-126 -14 -146 -29 -147 -107 l0 -52 49 -14 c35 -10 86
-14 177 -11 111 3 131 6 156 24 41 31 52 68 27 95 -27 30 -115 79 -139 78 -11
-1 -66 -7 -123 -13z"/>
<path d="M780 8437 c-51 -26 -47 -107 7 -128 40 -15 101 -2 119 26 11 17 13
32 6 57 -13 52 -76 73 -132 45z"/>
<path d="M730 8093 c-29 -11 -70 -57 -70 -79 0 -38 36 -54 122 -54 l78 0 0 70
0 70 -57 -1 c-32 0 -65 -3 -73 -6z"/>
<path d="M790 7560 c-23 -23 -25 -48 -8 -85 13 -29 38 -38 94 -33 38 3 39 4
53 57 14 50 13 55 -4 67 -29 22 -111 18 -135 -6z"/>
<path d="M680 5123 c0 -5 14 -28 30 -53 16 -25 30 -48 30 -51 0 -3 -18 -11
-41 -18 -39 -12 -40 -14 -34 -44 19 -90 67 -128 169 -135 l75 -5 11 44 c7 24
13 57 14 73 1 27 -4 31 -58 52 -32 13 -61 26 -63 28 -3 3 6 30 20 60 l26 56
-90 0 c-49 0 -89 -3 -89 -7z"/>
<path d="M1120 4508 c0 -13 7 -45 15 -72 22 -72 19 -93 -16 -126 -41 -37 -35
-69 18 -94 41 -19 193 -35 193 -20 0 5 -14 29 -31 54 -67 100 -67 95 -10 155
88 93 64 125 -90 125 -75 0 -79 -1 -79 -22z"/>
<path d="M950 4071 c0 -27 43 -75 84 -95 46 -22 145 -43 239 -50 l77 -7 0 63
c0 109 2 108 -216 108 -175 0 -184 -1 -184 -19z"/>
<path d="M1874 4004 c10 -39 24 -54 52 -54 27 0 63 45 48 60 -6 6 -32 13 -58
16 l-49 7 7 -29z"/>
<path d="M1023 3827 c-29 -17 -53 -35 -53 -40 0 -19 68 -68 124 -91 58 -22
105 -32 371 -74 l110 -17 63 25 c72 29 82 40 82 97 0 50 37 41 -354 82 -173
18 -271 32 -274 39 -5 17 -11 15 -69 -21z"/>
<path d="M1060 3571 c-63 -11 -79 -100 -26 -150 33 -31 76 -41 200 -48 107 -6
111 -7 143 -39 54 -54 110 -66 341 -71 l202 -5 0 70 c0 39 3 77 6 86 6 14 -21
16 -256 16 l-262 0 -31 26 c-53 45 -245 130 -276 123 -3 -1 -22 -4 -41 -8z"/>
<path d="M1178 3189 c-16 -6 -28 -14 -27 -17 0 -4 28 -29 62 -57 33 -27 85
-70 114 -94 l53 -43 231 -19 c218 -18 232 -20 261 -44 16 -14 35 -25 41 -25 7
0 96 -1 200 -3 l187 -2 0 61 c0 86 -19 108 -91 108 -30 0 -67 -7 -83 -16 -28
-15 -33 -14 -102 19 -65 29 -112 40 -386 84 -350 56 -421 63 -460 48z"/>
<path d="M1341 2808 c0 -7 15 -51 33 -98 l32 -85 134 -7 c259 -14 551 -48 755
-89 169 -35 214 -40 296 -37 122 4 139 16 139 94 0 46 -4 55 -29 77 -19 16
-52 29 -94 36 -80 14 -74 14 -79 -7 -6 -22 46 -28 -608 68 -414 60 -581 74
-579 48z"/>
<path d="M1682 2442 c-9 -6 4 -30 46 -88 l59 -80 129 -11 c71 -7 200 -28 288
-48 214 -48 292 -54 714 -55 l362 0 0 92 0 91 -277 -8 c-153 -5 -348 -9 -433
-9 -154 -1 -156 -1 -325 46 -93 26 -210 54 -260 63 -95 16 -281 20 -303 7z"/>
<path d="M2012 1948 l3 -73 90 -5 c81 -5 98 -10 170 -47 97 -51 144 -62 257
-63 84 0 86 0 81 23 -27 110 -241 203 -536 232 l-68 7 3 -74z"/>
<path d="M3195 1857 c-44 -5 -82 -11 -84 -13 -11 -9 46 -66 87 -86 44 -22 60
-23 269 -26 141 -2 228 0 241 7 16 9 39 68 29 77 -2 2 -68 15 -147 29 -153 26
-254 30 -395 12z"/>
<path d="M5243 11312 c-108 -39 -164 -107 -238 -290 -25 -61 -45 -115 -45
-120 0 -4 32 -33 70 -65 l70 -57 0 -120 c0 -122 17 -237 46 -306 24 -58 65
-114 95 -130 32 -16 179 -20 179 -4 0 6 34 44 75 86 52 53 76 84 80 107 3 18
8 137 12 266 5 141 12 236 18 237 19 6 170 -111 167 -129 -2 -9 0 -17 3 -17 5
0 212 156 238 180 10 9 -46 125 -76 158 -27 29 -46 28 -117 -8 -99 -50 -120
-42 -218 80 -88 111 -138 142 -235 147 -52 3 -86 -1 -124 -15z m164 -173 c47
-23 93 -71 93 -98 0 -10 -9 -26 -21 -37 -18 -17 -41 -19 -170 -22 -113 -3
-149 -1 -149 8 0 7 5 41 12 76 11 62 13 65 47 73 96 25 136 25 188 0z m-60
-621 c8 -9 32 -18 52 -20 l36 -3 3 -56 3 -56 -42 -16 c-39 -15 -43 -15 -80 3
-57 30 -72 59 -77 155 -5 95 5 121 51 133 l32 8 3 -65 c2 -42 9 -72 19 -83z"/>
<path d="M4922 11243 c3 -27 6 -28 61 -31 l57 -3 0 31 0 30 -61 0 c-60 0 -60
0 -57 -27z"/>
<path d="M6045 10821 c-27 -10 -69 -28 -92 -39 -23 -12 -49 -22 -58 -22 -27 0
-16 -39 23 -82 49 -55 161 -127 264 -170 103 -43 227 -57 254 -27 14 16 10 23
-57 99 -148 168 -241 260 -263 260 -11 -1 -43 -9 -71 -19z"/>
<path d="M4523 10598 c-13 -6 -23 -14 -23 -17 0 -4 18 -25 40 -46 28 -27 40
-48 40 -67 0 -27 -1 -27 -72 -30 l-73 -3 2 -54 c4 -92 32 -106 156 -74 78 20
81 18 92 -52 l6 -42 69 -5 c59 -5 74 -10 104 -36 34 -30 100 -49 142 -40 15 3
8 11 -30 37 l-48 34 5 61 c4 33 9 118 13 189 l7 127 -24 0 c-13 0 -96 7 -184
15 -185 17 -193 17 -222 3z"/>
<path d="M6455 10397 l-50 -12 -3 -63 -3 -63 48 7 c27 3 78 11 113 18 l65 11
0 55 0 55 -60 2 c-33 1 -82 -4 -110 -10z"/>
<path d="M4035 9989 c-4 -6 3 -21 15 -34 44 -47 6 -65 -135 -65 -175 0 -331
-86 -385 -213 -29 -67 -23 -139 24 -285 19 -59 37 -142 41 -184 7 -69 13 -86
60 -165 68 -115 98 -136 185 -131 78 4 105 21 157 97 55 82 85 179 91 294 l5
98 31 -7 c44 -9 52 -19 36 -50 -13 -23 -13 -27 5 -40 10 -8 33 -14 51 -14 18
0 36 -4 39 -10 8 -13 -22 -68 -53 -97 -19 -17 -25 -32 -24 -60 3 -67 7 -68
245 -68 292 0 295 1 338 158 27 94 36 109 122 205 59 65 78 93 88 132 12 47
15 51 50 56 86 14 159 90 159 166 l0 28 -90 0 c-116 0 -155 -15 -178 -70 -17
-39 -18 -40 -69 -40 -63 0 -97 -14 -112 -47 -6 -13 -11 -68 -11 -121 l0 -97
-67 -26 -68 -26 0 -69 0 -69 -34 0 c-50 0 -64 31 -117 246 -24 99 -50 193 -58
207 -8 17 -17 82 -21 170 l-7 142 -154 0 c-98 0 -155 -4 -159 -11z m-5 -319
c0 -41 -5 -56 -25 -75 -23 -24 -31 -25 -133 -25 -129 0 -149 10 -154 75 l-3
40 125 16 c69 9 140 17 158 18 l32 1 0 -50z m-165 -343 l70 -12 3 -67 c3 -62
1 -69 -29 -102 -37 -43 -60 -45 -88 -10 -23 30 -37 73 -47 152 -8 59 -14 57
91 39z"/>
<path d="M5235 9970 l-50 -29 5 -58 c6 -68 25 -83 103 -83 63 0 104 18 149 68
61 67 63 76 23 106 -29 23 -43 26 -107 25 -62 0 -81 -5 -123 -29z"/>
<path d="M7900 7394 c-23 -30 -40 -57 -38 -58 1 -2 62 -8 133 -15 72 -6 166
-20 210 -31 83 -20 132 -24 160 -14 22 9 45 56 45 93 0 36 7 34 -235 56 -93 8
-184 18 -201 20 -28 5 -35 0 -74 -51z"/>
<path d="M6679 7334 c-151 -78 -206 -141 -194 -216 10 -60 49 -96 130 -123
l70 -22 6 -49 c4 -27 9 -63 13 -80 11 -49 -11 -64 -96 -64 l-71 0 7 -47 c7
-57 30 -92 77 -115 29 -15 62 -18 214 -18 125 0 200 5 244 15 l63 15 47 -30
c81 -54 131 -21 131 85 0 52 -3 65 -17 69 -10 2 -94 14 -187 27 l-168 22 6 56
c3 31 9 108 12 171 8 133 -4 175 -72 250 -32 35 -115 101 -126 100 -2 -1 -42
-21 -89 -46z"/>
<path d="M7750 7198 c1 -31 41 -98 67 -111 38 -20 68 -25 214 -37 l126 -10 58
35 59 35 128 0 c123 0 128 1 128 21 0 23 -18 60 -34 71 -6 4 -176 8 -378 8
-288 0 -368 -3 -368 -12z"/>
<path d="M7945 6882 c-219 -89 -250 -105 -248 -122 1 -8 7 -58 13 -110 6 -52
14 -98 18 -102 15 -15 207 -58 258 -58 52 0 54 1 74 39 11 22 17 42 12 44 -4
3 -34 12 -67 21 -33 10 -97 28 -143 42 l-82 25 15 28 c26 51 91 73 233 80
l124 6 32 -65 c38 -79 64 -98 141 -105 74 -7 109 8 113 49 6 53 -5 73 -57 97
-46 20 -50 25 -56 67 -14 94 -46 122 -150 129 -56 4 -72 -1 -230 -65z"/>
<path d="M1728 6893 c-37 -4 -38 -5 -38 -44 0 -44 1 -44 -45 -25 l-34 15 -60
-98 c-76 -123 -93 -163 -89 -214 3 -38 6 -41 46 -55 24 -8 58 -29 76 -47 50
-50 60 -103 61 -309 l0 -180 165 -63 c214 -82 200 -78 200 -56 1 39 54 118 93
136 36 18 43 18 200 2 185 -20 242 -13 253 29 8 34 -2 308 -16 412 l-12 91
-54 29 c-30 16 -54 32 -54 36 0 3 28 31 61 61 87 77 80 89 -49 81 l-98 -7
-125 81 -124 80 -135 22 c-172 27 -178 28 -222 23z m252 -165 c87 -44 75 -105
-24 -133 -94 -26 -150 -28 -174 -8 -33 28 -38 73 -11 107 46 58 133 72 209 34z
m-64 -380 c-4 -13 -10 -49 -13 -80 -7 -65 3 -83 48 -93 26 -6 29 -11 29 -46 0
-50 -22 -104 -48 -118 -35 -19 -109 -14 -132 9 -18 18 -20 33 -20 185 l0 165
71 0 c69 0 71 -1 65 -22z"/>
<path d="M7840 6371 l0 -59 69 -41 c78 -46 111 -51 142 -20 26 26 20 67 -16
114 -32 43 -82 65 -144 65 l-51 0 0 -59z"/>
<path d="M7350 7503 c0 -132 25 -180 102 -201 36 -10 36 -10 52 32 24 62 21
113 -9 148 -14 16 -25 38 -25 48 0 42 -10 50 -66 50 l-54 0 0 -77z"/>
<path d="M6805 1035 c-108 -46 -176 -55 -406 -55 l-195 0 -56 -77 c-30 -43
-58 -83 -61 -90 -5 -8 10 -15 47 -23 46 -9 63 -8 102 5 38 13 102 17 308 19
394 5 456 28 456 170 l0 54 -47 16 c-58 20 -52 21 -148 -19z"/>
<path d="M3769 973 c-16 -36 -28 -67 -27 -68 2 -1 145 -4 318 -6 l315 -4 27
50 c15 28 28 55 28 61 0 24 -54 34 -181 34 -132 0 -155 -5 -196 -43 -25 -22
-28 -22 -166 17 l-88 25 -30 -66z"/>
<path d="M5910 935 c0 -41 2 -45 25 -45 23 0 25 4 25 45 0 41 -2 45 -25 45
-23 0 -25 -4 -25 -45z"/>
</g>
</svg>
